ISO-10303-21;
HEADER;
FILE_DESCRIPTION(('FreeCAD Model'),'2;1');
FILE_NAME('Open CASCADE Shape Model','2026-07-24T23:30:49',('Author'),(
    ''),'Open CASCADE STEP processor 7.8','FreeCAD','Unknown');
FILE_SCHEMA(('AUTOMOTIVE_DESIGN { 1 0 10303 214 1 1 1 1 }'));
ENDSEC;
DATA;
#1 = APPLICATION_PROTOCOL_DEFINITION('international standard',
  'automotive_design',2000,#2);
#2 = APPLICATION_CONTEXT(
  'core data for automotive mechanical design processes');
#3 = SHAPE_DEFINITION_REPRESENTATION(#4,#10);
#4 = PRODUCT_DEFINITION_SHAPE('','',#5);
#5 = PRODUCT_DEFINITION('design','',#6,#9);
#6 = PRODUCT_DEFINITION_FORMATION('','',#7);
#7 = PRODUCT('SolenoidBase','SolenoidBase','',(#8));
#8 = PRODUCT_CONTEXT('',#2,'mechanical');
#9 = PRODUCT_DEFINITION_CONTEXT('part definition',#2,'design');
#10 = ADVANCED_BREP_SHAPE_REPRESENTATION('',(#11,#15),#709);
#11 = AXIS2_PLACEMENT_3D('',#12,#13,#14);
#12 = CARTESIAN_POINT('',(0.,0.,0.));
#13 = DIRECTION('',(0.,0.,1.));
#14 = DIRECTION('',(1.,0.,-0.));
#15 = MANIFOLD_SOLID_BREP('',#16);
#16 = CLOSED_SHELL('',(#17,#57,#88,#121,#209,#339,#356,#396,#413,#430,
    #447,#464,#476,#501,#526,#550,#574,#598,#622,#646,#670,#687));
#17 = ADVANCED_FACE('',(#18),#52,.F.);
#18 = FACE_BOUND('',#19,.F.);
#19 = EDGE_LOOP('',(#20,#30,#38,#46));
#20 = ORIENTED_EDGE('',*,*,#21,.T.);
#21 = EDGE_CURVE('',#22,#24,#26,.T.);
#22 = VERTEX_POINT('',#23);
#23 = CARTESIAN_POINT('',(-7.5,-1.33226762955E-15,-6.));
#24 = VERTEX_POINT('',#25);
#25 = CARTESIAN_POINT('',(-7.5,-5.,-6.));
#26 = LINE('',#27,#28);
#27 = CARTESIAN_POINT('',(-7.5,-1.33226762955E-15,-6.));
#28 = VECTOR('',#29,1.);
#29 = DIRECTION('',(0.,-1.,2.22044604925E-16));
#30 = ORIENTED_EDGE('',*,*,#31,.T.);
#31 = EDGE_CURVE('',#24,#32,#34,.T.);
#32 = VERTEX_POINT('',#33);
#33 = CARTESIAN_POINT('',(-7.5,-5.,-32.));
#34 = LINE('',#35,#36);
#35 = CARTESIAN_POINT('',(-7.5,-5.,-6.));
#36 = VECTOR('',#37,1.);
#37 = DIRECTION('',(0.,-2.22044604925E-16,-1.));
#38 = ORIENTED_EDGE('',*,*,#39,.F.);
#39 = EDGE_CURVE('',#40,#32,#42,.T.);
#40 = VERTEX_POINT('',#41);
#41 = CARTESIAN_POINT('',(-7.5,-7.105427357601E-15,-32.));
#42 = LINE('',#43,#44);
#43 = CARTESIAN_POINT('',(-7.5,-7.105427357601E-15,-32.));
#44 = VECTOR('',#45,1.);
#45 = DIRECTION('',(0.,-1.,2.22044604925E-16));
#46 = ORIENTED_EDGE('',*,*,#47,.F.);
#47 = EDGE_CURVE('',#22,#40,#48,.T.);
#48 = LINE('',#49,#50);
#49 = CARTESIAN_POINT('',(-7.5,-1.33226762955E-15,-6.));
#50 = VECTOR('',#51,1.);
#51 = DIRECTION('',(0.,-2.22044604925E-16,-1.));
#52 = PLANE('',#53);
#53 = AXIS2_PLACEMENT_3D('',#54,#55,#56);
#54 = CARTESIAN_POINT('',(-7.5,-1.33226762955E-15,-6.));
#55 = DIRECTION('',(1.,0.,0.));
#56 = DIRECTION('',(0.,-2.22044604925E-16,-1.));
#57 = ADVANCED_FACE('',(#58),#83,.T.);
#58 = FACE_BOUND('',#59,.T.);
#59 = EDGE_LOOP('',(#60,#61,#69,#77));
#60 = ORIENTED_EDGE('',*,*,#21,.T.);
#61 = ORIENTED_EDGE('',*,*,#62,.T.);
#62 = EDGE_CURVE('',#24,#63,#65,.T.);
#63 = VERTEX_POINT('',#64);
#64 = CARTESIAN_POINT('',(-10.,-5.,-6.));
#65 = LINE('',#66,#67);
#66 = CARTESIAN_POINT('',(-7.5,-5.,-6.));
#67 = VECTOR('',#68,1.);
#68 = DIRECTION('',(-1.,0.,0.));
#69 = ORIENTED_EDGE('',*,*,#70,.F.);
#70 = EDGE_CURVE('',#71,#63,#73,.T.);
#71 = VERTEX_POINT('',#72);
#72 = CARTESIAN_POINT('',(-10.,-1.33226762955E-15,-6.));
#73 = LINE('',#74,#75);
#74 = CARTESIAN_POINT('',(-10.,-1.33226762955E-15,-6.));
#75 = VECTOR('',#76,1.);
#76 = DIRECTION('',(0.,-1.,2.22044604925E-16));
#77 = ORIENTED_EDGE('',*,*,#78,.F.);
#78 = EDGE_CURVE('',#22,#71,#79,.T.);
#79 = LINE('',#80,#81);
#80 = CARTESIAN_POINT('',(-7.5,-1.33226762955E-15,-6.));
#81 = VECTOR('',#82,1.);
#82 = DIRECTION('',(-1.,0.,0.));
#83 = PLANE('',#84);
#84 = AXIS2_PLACEMENT_3D('',#85,#86,#87);
#85 = CARTESIAN_POINT('',(-7.5,-1.33226762955E-15,-6.));
#86 = DIRECTION('',(0.,-2.22044604925E-16,-1.));
#87 = DIRECTION('',(-1.,0.,0.));
#88 = ADVANCED_FACE('',(#89),#116,.T.);
#89 = FACE_BOUND('',#90,.F.);
#90 = EDGE_LOOP('',(#91,#92,#101,#109));
#91 = ORIENTED_EDGE('',*,*,#39,.T.);
#92 = ORIENTED_EDGE('',*,*,#93,.T.);
#93 = EDGE_CURVE('',#32,#94,#96,.T.);
#94 = VERTEX_POINT('',#95);
#95 = CARTESIAN_POINT('',(-5.5,-5.,-34.));
#96 = CIRCLE('',#97,2.);
#97 = AXIS2_PLACEMENT_3D('',#98,#99,#100);
#98 = CARTESIAN_POINT('',(-5.5,-5.,-32.));
#99 = DIRECTION('',(0.,-1.,2.22044604925E-16));
#100 = DIRECTION('',(1.,0.,0.));
#101 = ORIENTED_EDGE('',*,*,#102,.F.);
#102 = EDGE_CURVE('',#103,#94,#105,.T.);
#103 = VERTEX_POINT('',#104);
#104 = CARTESIAN_POINT('',(-5.5,-7.549516567451E-15,-34.));
#105 = LINE('',#106,#107);
#106 = CARTESIAN_POINT('',(-5.5,-7.549516567451E-15,-34.));
#107 = VECTOR('',#108,1.);
#108 = DIRECTION('',(0.,-1.,2.22044604925E-16));
#109 = ORIENTED_EDGE('',*,*,#110,.F.);
#110 = EDGE_CURVE('',#40,#103,#111,.T.);
#111 = CIRCLE('',#112,2.);
#112 = AXIS2_PLACEMENT_3D('',#113,#114,#115);
#113 = CARTESIAN_POINT('',(-5.5,-7.105427357601E-15,-32.));
#114 = DIRECTION('',(0.,-1.,2.22044604925E-16));
#115 = DIRECTION('',(1.,0.,0.));
#116 = CYLINDRICAL_SURFACE('',#117,2.);
#117 = AXIS2_PLACEMENT_3D('',#118,#119,#120);
#118 = CARTESIAN_POINT('',(-5.5,-7.105427357601E-15,-32.));
#119 = DIRECTION('',(0.,1.,-2.22044604925E-16));
#120 = DIRECTION('',(1.,0.,0.));
#121 = ADVANCED_FACE('',(#122,#182,#193),#204,.T.);
#122 = FACE_BOUND('',#123,.T.);
#123 = EDGE_LOOP('',(#124,#125,#126,#134,#142,#150,#158,#166,#175,#181)
  );
#124 = ORIENTED_EDGE('',*,*,#47,.F.);
#125 = ORIENTED_EDGE('',*,*,#78,.T.);
#126 = ORIENTED_EDGE('',*,*,#127,.T.);
#127 = EDGE_CURVE('',#71,#128,#130,.T.);
#128 = VERTEX_POINT('',#129);
#129 = CARTESIAN_POINT('',(-10.,0.,-0.));
#130 = LINE('',#131,#132);
#131 = CARTESIAN_POINT('',(-10.,-1.33226762955E-15,-6.));
#132 = VECTOR('',#133,1.);
#133 = DIRECTION('',(0.,2.22044604925E-16,1.));
#134 = ORIENTED_EDGE('',*,*,#135,.F.);
#135 = EDGE_CURVE('',#136,#128,#138,.T.);
#136 = VERTEX_POINT('',#137);
#137 = CARTESIAN_POINT('',(10.,0.,0.));
#138 = LINE('',#139,#140);
#139 = CARTESIAN_POINT('',(-7.5,0.,0.));
#140 = VECTOR('',#141,1.);
#141 = DIRECTION('',(-1.,0.,0.));
#142 = ORIENTED_EDGE('',*,*,#143,.F.);
#143 = EDGE_CURVE('',#144,#136,#146,.T.);
#144 = VERTEX_POINT('',#145);
#145 = CARTESIAN_POINT('',(10.,-1.33226762955E-15,-6.));
#146 = LINE('',#147,#148);
#147 = CARTESIAN_POINT('',(10.,-1.33226762955E-15,-6.));
#148 = VECTOR('',#149,1.);
#149 = DIRECTION('',(0.,2.22044604925E-16,1.));
#150 = ORIENTED_EDGE('',*,*,#151,.F.);
#151 = EDGE_CURVE('',#152,#144,#154,.T.);
#152 = VERTEX_POINT('',#153);
#153 = CARTESIAN_POINT('',(7.5,-1.33226762955E-15,-6.));
#154 = LINE('',#155,#156);
#155 = CARTESIAN_POINT('',(7.5,-1.33226762955E-15,-6.));
#156 = VECTOR('',#157,1.);
#157 = DIRECTION('',(1.,0.,0.));
#158 = ORIENTED_EDGE('',*,*,#159,.F.);
#159 = EDGE_CURVE('',#160,#152,#162,.T.);
#160 = VERTEX_POINT('',#161);
#161 = CARTESIAN_POINT('',(7.5,-7.105427357601E-15,-32.));
#162 = LINE('',#163,#164);
#163 = CARTESIAN_POINT('',(7.5,-7.105427357601E-15,-32.));
#164 = VECTOR('',#165,1.);
#165 = DIRECTION('',(0.,2.22044604925E-16,1.));
#166 = ORIENTED_EDGE('',*,*,#167,.F.);
#167 = EDGE_CURVE('',#168,#160,#170,.T.);
#168 = VERTEX_POINT('',#169);
#169 = CARTESIAN_POINT('',(5.5,-7.549516567451E-15,-34.));
#170 = CIRCLE('',#171,2.);
#171 = AXIS2_PLACEMENT_3D('',#172,#173,#174);
#172 = CARTESIAN_POINT('',(5.5,-7.105427357601E-15,-32.));
#173 = DIRECTION('',(0.,-1.,2.22044604925E-16));
#174 = DIRECTION('',(1.,0.,0.));
#175 = ORIENTED_EDGE('',*,*,#176,.F.);
#176 = EDGE_CURVE('',#103,#168,#177,.T.);
#177 = LINE('',#178,#179);
#178 = CARTESIAN_POINT('',(-5.5,-7.549516567451E-15,-34.));
#179 = VECTOR('',#180,1.);
#180 = DIRECTION('',(1.,0.,0.));
#181 = ORIENTED_EDGE('',*,*,#110,.F.);
#182 = FACE_BOUND('',#183,.T.);
#183 = EDGE_LOOP('',(#184));
#184 = ORIENTED_EDGE('',*,*,#185,.T.);
#185 = EDGE_CURVE('',#186,#186,#188,.T.);
#186 = VERTEX_POINT('',#187);
#187 = CARTESIAN_POINT('',(-2.25,-3.441691376338E-15,-10.5));
#188 = CIRCLE('',#189,0.75);
#189 = AXIS2_PLACEMENT_3D('',#190,#191,#192);
#190 = CARTESIAN_POINT('',(-3.,-3.441691376338E-15,-10.5));
#191 = DIRECTION('',(0.,-1.,2.22044604925E-16));
#192 = DIRECTION('',(1.,0.,0.));
#193 = FACE_BOUND('',#194,.T.);
#194 = EDGE_LOOP('',(#195));
#195 = ORIENTED_EDGE('',*,*,#196,.T.);
#196 = EDGE_CURVE('',#197,#197,#199,.T.);
#197 = VERTEX_POINT('',#198);
#198 = CARTESIAN_POINT('',(3.75,-3.441691376338E-15,-20.5));
#199 = CIRCLE('',#200,0.75);
#200 = AXIS2_PLACEMENT_3D('',#201,#202,#203);
#201 = CARTESIAN_POINT('',(3.,-3.441691376338E-15,-20.5));
#202 = DIRECTION('',(0.,-1.,2.22044604925E-16));
#203 = DIRECTION('',(1.,0.,0.));
#204 = PLANE('',#205);
#205 = AXIS2_PLACEMENT_3D('',#206,#207,#208);
#206 = CARTESIAN_POINT('',(0.,-3.417063747238E-15,-15.38908701876));
#207 = DIRECTION('',(0.,1.,0.));
#208 = DIRECTION('',(0.,0.,1.));
#209 = ADVANCED_FACE('',(#210),#334,.F.);
#210 = FACE_BOUND('',#211,.F.);
#211 = EDGE_LOOP('',(#212,#213,#214,#222,#230,#238,#246,#254,#263,#271,
    #279,#287,#295,#303,#311,#319,#327,#333));
#212 = ORIENTED_EDGE('',*,*,#31,.F.);
#213 = ORIENTED_EDGE('',*,*,#62,.T.);
#214 = ORIENTED_EDGE('',*,*,#215,.T.);
#215 = EDGE_CURVE('',#63,#216,#218,.T.);
#216 = VERTEX_POINT('',#217);
#217 = CARTESIAN_POINT('',(-10.,-5.,1.110223024625E-15));
#218 = LINE('',#219,#220);
#219 = CARTESIAN_POINT('',(-10.,-5.,-6.));
#220 = VECTOR('',#221,1.);
#221 = DIRECTION('',(0.,2.22044604925E-16,1.));
#222 = ORIENTED_EDGE('',*,*,#223,.F.);
#223 = EDGE_CURVE('',#224,#216,#226,.T.);
#224 = VERTEX_POINT('',#225);
#225 = CARTESIAN_POINT('',(10.,-5.,1.110223024625E-15));
#226 = LINE('',#227,#228);
#227 = CARTESIAN_POINT('',(10.,-5.,1.110223024625E-15));
#228 = VECTOR('',#229,1.);
#229 = DIRECTION('',(-1.,0.,0.));
#230 = ORIENTED_EDGE('',*,*,#231,.F.);
#231 = EDGE_CURVE('',#232,#224,#234,.T.);
#232 = VERTEX_POINT('',#233);
#233 = CARTESIAN_POINT('',(10.,-5.,-6.));
#234 = LINE('',#235,#236);
#235 = CARTESIAN_POINT('',(10.,-5.,-6.));
#236 = VECTOR('',#237,1.);
#237 = DIRECTION('',(0.,2.22044604925E-16,1.));
#238 = ORIENTED_EDGE('',*,*,#239,.F.);
#239 = EDGE_CURVE('',#240,#232,#242,.T.);
#240 = VERTEX_POINT('',#241);
#241 = CARTESIAN_POINT('',(7.5,-5.,-6.));
#242 = LINE('',#243,#244);
#243 = CARTESIAN_POINT('',(7.5,-5.,-6.));
#244 = VECTOR('',#245,1.);
#245 = DIRECTION('',(1.,0.,0.));
#246 = ORIENTED_EDGE('',*,*,#247,.F.);
#247 = EDGE_CURVE('',#248,#240,#250,.T.);
#248 = VERTEX_POINT('',#249);
#249 = CARTESIAN_POINT('',(7.5,-5.,-32.));
#250 = LINE('',#251,#252);
#251 = CARTESIAN_POINT('',(7.5,-5.,-32.));
#252 = VECTOR('',#253,1.);
#253 = DIRECTION('',(0.,2.22044604925E-16,1.));
#254 = ORIENTED_EDGE('',*,*,#255,.F.);
#255 = EDGE_CURVE('',#256,#248,#258,.T.);
#256 = VERTEX_POINT('',#257);
#257 = CARTESIAN_POINT('',(5.5,-5.,-34.));
#258 = CIRCLE('',#259,2.);
#259 = AXIS2_PLACEMENT_3D('',#260,#261,#262);
#260 = CARTESIAN_POINT('',(5.5,-5.,-32.));
#261 = DIRECTION('',(0.,-1.,2.22044604925E-16));
#262 = DIRECTION('',(1.,0.,0.));
#263 = ORIENTED_EDGE('',*,*,#264,.F.);
#264 = EDGE_CURVE('',#265,#256,#267,.T.);
#265 = VERTEX_POINT('',#266);
#266 = CARTESIAN_POINT('',(3.,-5.,-34.));
#267 = LINE('',#268,#269);
#268 = CARTESIAN_POINT('',(-5.5,-5.,-34.));
#269 = VECTOR('',#270,1.);
#270 = DIRECTION('',(1.,0.,0.));
#271 = ORIENTED_EDGE('',*,*,#272,.F.);
#272 = EDGE_CURVE('',#273,#265,#275,.T.);
#273 = VERTEX_POINT('',#274);
#274 = CARTESIAN_POINT('',(3.,-5.,-26.));
#275 = LINE('',#276,#277);
#276 = CARTESIAN_POINT('',(3.,-5.,-26.));
#277 = VECTOR('',#278,1.);
#278 = DIRECTION('',(0.,-2.22044604925E-16,-1.));
#279 = ORIENTED_EDGE('',*,*,#280,.F.);
#280 = EDGE_CURVE('',#281,#273,#283,.T.);
#281 = VERTEX_POINT('',#282);
#282 = CARTESIAN_POINT('',(5.6,-5.,-26.));
#283 = LINE('',#284,#285);
#284 = CARTESIAN_POINT('',(5.6,-5.,-26.));
#285 = VECTOR('',#286,1.);
#286 = DIRECTION('',(-1.,0.,0.));
#287 = ORIENTED_EDGE('',*,*,#288,.T.);
#288 = EDGE_CURVE('',#281,#289,#291,.T.);
#289 = VERTEX_POINT('',#290);
#290 = CARTESIAN_POINT('',(5.6,-5.,-5.));
#291 = LINE('',#292,#293);
#292 = CARTESIAN_POINT('',(5.6,-5.,-26.));
#293 = VECTOR('',#294,1.);
#294 = DIRECTION('',(0.,2.22044604925E-16,1.));
#295 = ORIENTED_EDGE('',*,*,#296,.T.);
#296 = EDGE_CURVE('',#289,#297,#299,.T.);
#297 = VERTEX_POINT('',#298);
#298 = CARTESIAN_POINT('',(-5.6,-5.,-5.));
#299 = LINE('',#300,#301);
#300 = CARTESIAN_POINT('',(5.6,-5.,-5.));
#301 = VECTOR('',#302,1.);
#302 = DIRECTION('',(-1.,0.,0.));
#303 = ORIENTED_EDGE('',*,*,#304,.T.);
#304 = EDGE_CURVE('',#297,#305,#307,.T.);
#305 = VERTEX_POINT('',#306);
#306 = CARTESIAN_POINT('',(-5.6,-5.,-26.));
#307 = LINE('',#308,#309);
#308 = CARTESIAN_POINT('',(-5.6,-5.,-5.));
#309 = VECTOR('',#310,1.);
#310 = DIRECTION('',(0.,-2.22044604925E-16,-1.));
#311 = ORIENTED_EDGE('',*,*,#312,.T.);
#312 = EDGE_CURVE('',#305,#313,#315,.T.);
#313 = VERTEX_POINT('',#314);
#314 = CARTESIAN_POINT('',(-3.,-5.,-26.));
#315 = LINE('',#316,#317);
#316 = CARTESIAN_POINT('',(-5.6,-5.,-26.));
#317 = VECTOR('',#318,1.);
#318 = DIRECTION('',(1.,0.,0.));
#319 = ORIENTED_EDGE('',*,*,#320,.T.);
#320 = EDGE_CURVE('',#313,#321,#323,.T.);
#321 = VERTEX_POINT('',#322);
#322 = CARTESIAN_POINT('',(-3.,-5.,-34.));
#323 = LINE('',#324,#325);
#324 = CARTESIAN_POINT('',(-3.,-5.,-26.));
#325 = VECTOR('',#326,1.);
#326 = DIRECTION('',(0.,-2.22044604925E-16,-1.));
#327 = ORIENTED_EDGE('',*,*,#328,.F.);
#328 = EDGE_CURVE('',#94,#321,#329,.T.);
#329 = LINE('',#330,#331);
#330 = CARTESIAN_POINT('',(-5.5,-5.,-34.));
#331 = VECTOR('',#332,1.);
#332 = DIRECTION('',(1.,0.,0.));
#333 = ORIENTED_EDGE('',*,*,#93,.F.);
#334 = PLANE('',#335);
#335 = AXIS2_PLACEMENT_3D('',#336,#337,#338);
#336 = CARTESIAN_POINT('',(0.,-5.,-15.38908701876));
#337 = DIRECTION('',(0.,1.,0.));
#338 = DIRECTION('',(0.,0.,1.));
#339 = ADVANCED_FACE('',(#340),#351,.T.);
#340 = FACE_BOUND('',#341,.T.);
#341 = EDGE_LOOP('',(#342,#343,#344,#350));
#342 = ORIENTED_EDGE('',*,*,#70,.T.);
#343 = ORIENTED_EDGE('',*,*,#215,.T.);
#344 = ORIENTED_EDGE('',*,*,#345,.F.);
#345 = EDGE_CURVE('',#128,#216,#346,.T.);
#346 = LINE('',#347,#348);
#347 = CARTESIAN_POINT('',(-10.,0.,0.));
#348 = VECTOR('',#349,1.);
#349 = DIRECTION('',(0.,-1.,2.22044604925E-16));
#350 = ORIENTED_EDGE('',*,*,#127,.F.);
#351 = PLANE('',#352);
#352 = AXIS2_PLACEMENT_3D('',#353,#354,#355);
#353 = CARTESIAN_POINT('',(-10.,-1.33226762955E-15,-6.));
#354 = DIRECTION('',(-1.,0.,0.));
#355 = DIRECTION('',(0.,2.22044604925E-16,1.));
#356 = ADVANCED_FACE('',(#357),#391,.F.);
#357 = FACE_BOUND('',#358,.F.);
#358 = EDGE_LOOP('',(#359,#360,#361,#362,#370,#378,#384,#385));
#359 = ORIENTED_EDGE('',*,*,#176,.F.);
#360 = ORIENTED_EDGE('',*,*,#102,.T.);
#361 = ORIENTED_EDGE('',*,*,#328,.T.);
#362 = ORIENTED_EDGE('',*,*,#363,.T.);
#363 = EDGE_CURVE('',#321,#364,#366,.T.);
#364 = VERTEX_POINT('',#365);
#365 = CARTESIAN_POINT('',(-3.,-2.9,-34.));
#366 = LINE('',#367,#368);
#367 = CARTESIAN_POINT('',(-3.,-5.,-34.));
#368 = VECTOR('',#369,1.);
#369 = DIRECTION('',(0.,1.,-2.22044604925E-16));
#370 = ORIENTED_EDGE('',*,*,#371,.T.);
#371 = EDGE_CURVE('',#364,#372,#374,.T.);
#372 = VERTEX_POINT('',#373);
#373 = CARTESIAN_POINT('',(3.,-2.9,-34.));
#374 = LINE('',#375,#376);
#375 = CARTESIAN_POINT('',(-3.,-2.9,-34.));
#376 = VECTOR('',#377,1.);
#377 = DIRECTION('',(1.,0.,0.));
#378 = ORIENTED_EDGE('',*,*,#379,.F.);
#379 = EDGE_CURVE('',#265,#372,#380,.T.);
#380 = LINE('',#381,#382);
#381 = CARTESIAN_POINT('',(3.,-5.,-34.));
#382 = VECTOR('',#383,1.);
#383 = DIRECTION('',(0.,1.,-2.22044604925E-16));
#384 = ORIENTED_EDGE('',*,*,#264,.T.);
#385 = ORIENTED_EDGE('',*,*,#386,.F.);
#386 = EDGE_CURVE('',#168,#256,#387,.T.);
#387 = LINE('',#388,#389);
#388 = CARTESIAN_POINT('',(5.5,-7.549516567451E-15,-34.));
#389 = VECTOR('',#390,1.);
#390 = DIRECTION('',(0.,-1.,2.22044604925E-16));
#391 = PLANE('',#392);
#392 = AXIS2_PLACEMENT_3D('',#393,#394,#395);
#393 = CARTESIAN_POINT('',(-5.5,-7.549516567451E-15,-34.));
#394 = DIRECTION('',(0.,2.22044604925E-16,1.));
#395 = DIRECTION('',(1.,0.,0.));
#396 = ADVANCED_FACE('',(#397),#408,.T.);
#397 = FACE_BOUND('',#398,.T.);
#398 = EDGE_LOOP('',(#399,#405,#406,#407));
#399 = ORIENTED_EDGE('',*,*,#400,.F.);
#400 = EDGE_CURVE('',#136,#224,#401,.T.);
#401 = LINE('',#402,#403);
#402 = CARTESIAN_POINT('',(10.,0.,0.));
#403 = VECTOR('',#404,1.);
#404 = DIRECTION('',(0.,-1.,2.22044604925E-16));
#405 = ORIENTED_EDGE('',*,*,#135,.T.);
#406 = ORIENTED_EDGE('',*,*,#345,.T.);
#407 = ORIENTED_EDGE('',*,*,#223,.F.);
#408 = PLANE('',#409);
#409 = AXIS2_PLACEMENT_3D('',#410,#411,#412);
#410 = CARTESIAN_POINT('',(1.7763568394E-16,-2.5,5.551115123126E-16));
#411 = DIRECTION('',(0.,2.22044604925E-16,1.));
#412 = DIRECTION('',(0.,-1.,2.22044604925E-16));
#413 = ADVANCED_FACE('',(#414),#425,.T.);
#414 = FACE_BOUND('',#415,.F.);
#415 = EDGE_LOOP('',(#416,#417,#418,#424));
#416 = ORIENTED_EDGE('',*,*,#386,.T.);
#417 = ORIENTED_EDGE('',*,*,#255,.T.);
#418 = ORIENTED_EDGE('',*,*,#419,.F.);
#419 = EDGE_CURVE('',#160,#248,#420,.T.);
#420 = LINE('',#421,#422);
#421 = CARTESIAN_POINT('',(7.5,-7.105427357601E-15,-32.));
#422 = VECTOR('',#423,1.);
#423 = DIRECTION('',(0.,-1.,2.22044604925E-16));
#424 = ORIENTED_EDGE('',*,*,#167,.F.);
#425 = CYLINDRICAL_SURFACE('',#426,2.);
#426 = AXIS2_PLACEMENT_3D('',#427,#428,#429);
#427 = CARTESIAN_POINT('',(5.5,-7.105427357601E-15,-32.));
#428 = DIRECTION('',(0.,1.,-2.22044604925E-16));
#429 = DIRECTION('',(1.,0.,0.));
#430 = ADVANCED_FACE('',(#431),#442,.F.);
#431 = FACE_BOUND('',#432,.F.);
#432 = EDGE_LOOP('',(#433,#439,#440,#441));
#433 = ORIENTED_EDGE('',*,*,#434,.T.);
#434 = EDGE_CURVE('',#144,#232,#435,.T.);
#435 = LINE('',#436,#437);
#436 = CARTESIAN_POINT('',(10.,-1.33226762955E-15,-6.));
#437 = VECTOR('',#438,1.);
#438 = DIRECTION('',(0.,-1.,2.22044604925E-16));
#439 = ORIENTED_EDGE('',*,*,#231,.T.);
#440 = ORIENTED_EDGE('',*,*,#400,.F.);
#441 = ORIENTED_EDGE('',*,*,#143,.F.);
#442 = PLANE('',#443);
#443 = AXIS2_PLACEMENT_3D('',#444,#445,#446);
#444 = CARTESIAN_POINT('',(10.,-1.33226762955E-15,-6.));
#445 = DIRECTION('',(-1.,0.,0.));
#446 = DIRECTION('',(0.,2.22044604925E-16,1.));
#447 = ADVANCED_FACE('',(#448),#459,.F.);
#448 = FACE_BOUND('',#449,.F.);
#449 = EDGE_LOOP('',(#450,#451,#452,#458));
#450 = ORIENTED_EDGE('',*,*,#419,.T.);
#451 = ORIENTED_EDGE('',*,*,#247,.T.);
#452 = ORIENTED_EDGE('',*,*,#453,.F.);
#453 = EDGE_CURVE('',#152,#240,#454,.T.);
#454 = LINE('',#455,#456);
#455 = CARTESIAN_POINT('',(7.5,-1.33226762955E-15,-6.));
#456 = VECTOR('',#457,1.);
#457 = DIRECTION('',(0.,-1.,2.22044604925E-16));
#458 = ORIENTED_EDGE('',*,*,#159,.F.);
#459 = PLANE('',#460);
#460 = AXIS2_PLACEMENT_3D('',#461,#462,#463);
#461 = CARTESIAN_POINT('',(7.5,-7.105427357601E-15,-32.));
#462 = DIRECTION('',(-1.,0.,0.));
#463 = DIRECTION('',(0.,2.22044604925E-16,1.));
#464 = ADVANCED_FACE('',(#465),#471,.F.);
#465 = FACE_BOUND('',#466,.F.);
#466 = EDGE_LOOP('',(#467,#468,#469,#470));
#467 = ORIENTED_EDGE('',*,*,#453,.T.);
#468 = ORIENTED_EDGE('',*,*,#239,.T.);
#469 = ORIENTED_EDGE('',*,*,#434,.F.);
#470 = ORIENTED_EDGE('',*,*,#151,.F.);
#471 = PLANE('',#472);
#472 = AXIS2_PLACEMENT_3D('',#473,#474,#475);
#473 = CARTESIAN_POINT('',(7.5,-1.33226762955E-15,-6.));
#474 = DIRECTION('',(0.,2.22044604925E-16,1.));
#475 = DIRECTION('',(1.,0.,0.));
#476 = ADVANCED_FACE('',(#477),#496,.F.);
#477 = FACE_BOUND('',#478,.F.);
#478 = EDGE_LOOP('',(#479,#488,#494,#495));
#479 = ORIENTED_EDGE('',*,*,#480,.F.);
#480 = EDGE_CURVE('',#481,#481,#483,.T.);
#481 = VERTEX_POINT('',#482);
#482 = CARTESIAN_POINT('',(-2.25,-2.9,-10.5));
#483 = CIRCLE('',#484,0.75);
#484 = AXIS2_PLACEMENT_3D('',#485,#486,#487);
#485 = CARTESIAN_POINT('',(-3.,-2.9,-10.5));
#486 = DIRECTION('',(0.,-1.,2.22044604925E-16));
#487 = DIRECTION('',(1.,0.,0.));
#488 = ORIENTED_EDGE('',*,*,#489,.T.);
#489 = EDGE_CURVE('',#481,#186,#490,.T.);
#490 = LINE('',#491,#492);
#491 = CARTESIAN_POINT('',(-2.25,-2.9,-10.5));
#492 = VECTOR('',#493,1.);
#493 = DIRECTION('',(0.,1.,-2.22044604925E-16));
#494 = ORIENTED_EDGE('',*,*,#185,.T.);
#495 = ORIENTED_EDGE('',*,*,#489,.F.);
#496 = CYLINDRICAL_SURFACE('',#497,0.75);
#497 = AXIS2_PLACEMENT_3D('',#498,#499,#500);
#498 = CARTESIAN_POINT('',(-3.,-2.9,-10.5));
#499 = DIRECTION('',(0.,-1.,2.22044604925E-16));
#500 = DIRECTION('',(1.,0.,0.));
#501 = ADVANCED_FACE('',(#502),#521,.F.);
#502 = FACE_BOUND('',#503,.F.);
#503 = EDGE_LOOP('',(#504,#513,#519,#520));
#504 = ORIENTED_EDGE('',*,*,#505,.F.);
#505 = EDGE_CURVE('',#506,#506,#508,.T.);
#506 = VERTEX_POINT('',#507);
#507 = CARTESIAN_POINT('',(3.75,-2.9,-20.5));
#508 = CIRCLE('',#509,0.75);
#509 = AXIS2_PLACEMENT_3D('',#510,#511,#512);
#510 = CARTESIAN_POINT('',(3.,-2.9,-20.5));
#511 = DIRECTION('',(0.,-1.,2.22044604925E-16));
#512 = DIRECTION('',(1.,0.,0.));
#513 = ORIENTED_EDGE('',*,*,#514,.T.);
#514 = EDGE_CURVE('',#506,#197,#515,.T.);
#515 = LINE('',#516,#517);
#516 = CARTESIAN_POINT('',(3.75,-2.9,-20.5));
#517 = VECTOR('',#518,1.);
#518 = DIRECTION('',(0.,1.,-2.22044604925E-16));
#519 = ORIENTED_EDGE('',*,*,#196,.T.);
#520 = ORIENTED_EDGE('',*,*,#514,.F.);
#521 = CYLINDRICAL_SURFACE('',#522,0.75);
#522 = AXIS2_PLACEMENT_3D('',#523,#524,#525);
#523 = CARTESIAN_POINT('',(3.,-2.9,-20.5));
#524 = DIRECTION('',(0.,-1.,2.22044604925E-16));
#525 = DIRECTION('',(1.,0.,0.));
#526 = ADVANCED_FACE('',(#527),#545,.F.);
#527 = FACE_BOUND('',#528,.F.);
#528 = EDGE_LOOP('',(#529,#537,#543,#544));
#529 = ORIENTED_EDGE('',*,*,#530,.T.);
#530 = EDGE_CURVE('',#313,#531,#533,.T.);
#531 = VERTEX_POINT('',#532);
#532 = CARTESIAN_POINT('',(-3.,-2.9,-26.));
#533 = LINE('',#534,#535);
#534 = CARTESIAN_POINT('',(-3.,-5.,-26.));
#535 = VECTOR('',#536,1.);
#536 = DIRECTION('',(0.,1.,-2.22044604925E-16));
#537 = ORIENTED_EDGE('',*,*,#538,.T.);
#538 = EDGE_CURVE('',#531,#364,#539,.T.);
#539 = LINE('',#540,#541);
#540 = CARTESIAN_POINT('',(-3.,-2.9,-26.));
#541 = VECTOR('',#542,1.);
#542 = DIRECTION('',(0.,-2.22044604925E-16,-1.));
#543 = ORIENTED_EDGE('',*,*,#363,.F.);
#544 = ORIENTED_EDGE('',*,*,#320,.F.);
#545 = PLANE('',#546);
#546 = AXIS2_PLACEMENT_3D('',#547,#548,#549);
#547 = CARTESIAN_POINT('',(-3.,-5.,-26.));
#548 = DIRECTION('',(-1.,0.,0.));
#549 = DIRECTION('',(0.,-2.22044604925E-16,-1.));
#550 = ADVANCED_FACE('',(#551),#569,.F.);
#551 = FACE_BOUND('',#552,.F.);
#552 = EDGE_LOOP('',(#553,#561,#567,#568));
#553 = ORIENTED_EDGE('',*,*,#554,.T.);
#554 = EDGE_CURVE('',#305,#555,#557,.T.);
#555 = VERTEX_POINT('',#556);
#556 = CARTESIAN_POINT('',(-5.6,-2.9,-26.));
#557 = LINE('',#558,#559);
#558 = CARTESIAN_POINT('',(-5.6,-5.,-26.));
#559 = VECTOR('',#560,1.);
#560 = DIRECTION('',(0.,1.,-2.22044604925E-16));
#561 = ORIENTED_EDGE('',*,*,#562,.T.);
#562 = EDGE_CURVE('',#555,#531,#563,.T.);
#563 = LINE('',#564,#565);
#564 = CARTESIAN_POINT('',(-5.6,-2.9,-26.));
#565 = VECTOR('',#566,1.);
#566 = DIRECTION('',(1.,0.,0.));
#567 = ORIENTED_EDGE('',*,*,#530,.F.);
#568 = ORIENTED_EDGE('',*,*,#312,.F.);
#569 = PLANE('',#570);
#570 = AXIS2_PLACEMENT_3D('',#571,#572,#573);
#571 = CARTESIAN_POINT('',(-5.6,-5.,-26.));
#572 = DIRECTION('',(0.,-2.22044604925E-16,-1.));
#573 = DIRECTION('',(1.,0.,0.));
#574 = ADVANCED_FACE('',(#575),#593,.F.);
#575 = FACE_BOUND('',#576,.F.);
#576 = EDGE_LOOP('',(#577,#585,#591,#592));
#577 = ORIENTED_EDGE('',*,*,#578,.T.);
#578 = EDGE_CURVE('',#297,#579,#581,.T.);
#579 = VERTEX_POINT('',#580);
#580 = CARTESIAN_POINT('',(-5.6,-2.9,-5.));
#581 = LINE('',#582,#583);
#582 = CARTESIAN_POINT('',(-5.6,-5.,-5.));
#583 = VECTOR('',#584,1.);
#584 = DIRECTION('',(0.,1.,-2.22044604925E-16));
#585 = ORIENTED_EDGE('',*,*,#586,.T.);
#586 = EDGE_CURVE('',#579,#555,#587,.T.);
#587 = LINE('',#588,#589);
#588 = CARTESIAN_POINT('',(-5.6,-2.9,-5.));
#589 = VECTOR('',#590,1.);
#590 = DIRECTION('',(0.,-2.22044604925E-16,-1.));
#591 = ORIENTED_EDGE('',*,*,#554,.F.);
#592 = ORIENTED_EDGE('',*,*,#304,.F.);
#593 = PLANE('',#594);
#594 = AXIS2_PLACEMENT_3D('',#595,#596,#597);
#595 = CARTESIAN_POINT('',(-5.6,-5.,-5.));
#596 = DIRECTION('',(-1.,0.,0.));
#597 = DIRECTION('',(0.,-2.22044604925E-16,-1.));
#598 = ADVANCED_FACE('',(#599),#617,.F.);
#599 = FACE_BOUND('',#600,.F.);
#600 = EDGE_LOOP('',(#601,#609,#615,#616));
#601 = ORIENTED_EDGE('',*,*,#602,.T.);
#602 = EDGE_CURVE('',#289,#603,#605,.T.);
#603 = VERTEX_POINT('',#604);
#604 = CARTESIAN_POINT('',(5.6,-2.9,-5.));
#605 = LINE('',#606,#607);
#606 = CARTESIAN_POINT('',(5.6,-5.,-5.));
#607 = VECTOR('',#608,1.);
#608 = DIRECTION('',(0.,1.,-2.22044604925E-16));
#609 = ORIENTED_EDGE('',*,*,#610,.T.);
#610 = EDGE_CURVE('',#603,#579,#611,.T.);
#611 = LINE('',#612,#613);
#612 = CARTESIAN_POINT('',(5.6,-2.9,-5.));
#613 = VECTOR('',#614,1.);
#614 = DIRECTION('',(-1.,0.,0.));
#615 = ORIENTED_EDGE('',*,*,#578,.F.);
#616 = ORIENTED_EDGE('',*,*,#296,.F.);
#617 = PLANE('',#618);
#618 = AXIS2_PLACEMENT_3D('',#619,#620,#621);
#619 = CARTESIAN_POINT('',(5.6,-5.,-5.));
#620 = DIRECTION('',(0.,2.22044604925E-16,1.));
#621 = DIRECTION('',(-1.,0.,0.));
#622 = ADVANCED_FACE('',(#623),#641,.F.);
#623 = FACE_BOUND('',#624,.F.);
#624 = EDGE_LOOP('',(#625,#633,#639,#640));
#625 = ORIENTED_EDGE('',*,*,#626,.T.);
#626 = EDGE_CURVE('',#281,#627,#629,.T.);
#627 = VERTEX_POINT('',#628);
#628 = CARTESIAN_POINT('',(5.6,-2.9,-26.));
#629 = LINE('',#630,#631);
#630 = CARTESIAN_POINT('',(5.6,-5.,-26.));
#631 = VECTOR('',#632,1.);
#632 = DIRECTION('',(0.,1.,-2.22044604925E-16));
#633 = ORIENTED_EDGE('',*,*,#634,.T.);
#634 = EDGE_CURVE('',#627,#603,#635,.T.);
#635 = LINE('',#636,#637);
#636 = CARTESIAN_POINT('',(5.6,-2.9,-26.));
#637 = VECTOR('',#638,1.);
#638 = DIRECTION('',(0.,2.22044604925E-16,1.));
#639 = ORIENTED_EDGE('',*,*,#602,.F.);
#640 = ORIENTED_EDGE('',*,*,#288,.F.);
#641 = PLANE('',#642);
#642 = AXIS2_PLACEMENT_3D('',#643,#644,#645);
#643 = CARTESIAN_POINT('',(5.6,-5.,-26.));
#644 = DIRECTION('',(1.,0.,0.));
#645 = DIRECTION('',(0.,2.22044604925E-16,1.));
#646 = ADVANCED_FACE('',(#647),#665,.T.);
#647 = FACE_BOUND('',#648,.T.);
#648 = EDGE_LOOP('',(#649,#650,#658,#664));
#649 = ORIENTED_EDGE('',*,*,#626,.T.);
#650 = ORIENTED_EDGE('',*,*,#651,.T.);
#651 = EDGE_CURVE('',#627,#652,#654,.T.);
#652 = VERTEX_POINT('',#653);
#653 = CARTESIAN_POINT('',(3.,-2.9,-26.));
#654 = LINE('',#655,#656);
#655 = CARTESIAN_POINT('',(5.6,-2.9,-26.));
#656 = VECTOR('',#657,1.);
#657 = DIRECTION('',(-1.,0.,0.));
#658 = ORIENTED_EDGE('',*,*,#659,.F.);
#659 = EDGE_CURVE('',#273,#652,#660,.T.);
#660 = LINE('',#661,#662);
#661 = CARTESIAN_POINT('',(3.,-5.,-26.));
#662 = VECTOR('',#663,1.);
#663 = DIRECTION('',(0.,1.,-2.22044604925E-16));
#664 = ORIENTED_EDGE('',*,*,#280,.F.);
#665 = PLANE('',#666);
#666 = AXIS2_PLACEMENT_3D('',#667,#668,#669);
#667 = CARTESIAN_POINT('',(5.6,-5.,-26.));
#668 = DIRECTION('',(0.,2.22044604925E-16,1.));
#669 = DIRECTION('',(-1.,0.,0.));
#670 = ADVANCED_FACE('',(#671),#682,.T.);
#671 = FACE_BOUND('',#672,.T.);
#672 = EDGE_LOOP('',(#673,#674,#680,#681));
#673 = ORIENTED_EDGE('',*,*,#659,.T.);
#674 = ORIENTED_EDGE('',*,*,#675,.T.);
#675 = EDGE_CURVE('',#652,#372,#676,.T.);
#676 = LINE('',#677,#678);
#677 = CARTESIAN_POINT('',(3.,-2.9,-26.));
#678 = VECTOR('',#679,1.);
#679 = DIRECTION('',(0.,-2.22044604925E-16,-1.));
#680 = ORIENTED_EDGE('',*,*,#379,.F.);
#681 = ORIENTED_EDGE('',*,*,#272,.F.);
#682 = PLANE('',#683);
#683 = AXIS2_PLACEMENT_3D('',#684,#685,#686);
#684 = CARTESIAN_POINT('',(3.,-5.,-26.));
#685 = DIRECTION('',(-1.,0.,0.));
#686 = DIRECTION('',(0.,-2.22044604925E-16,-1.));
#687 = ADVANCED_FACE('',(#688,#698,#701),#704,.F.);
#688 = FACE_BOUND('',#689,.F.);
#689 = EDGE_LOOP('',(#690,#691,#692,#693,#694,#695,#696,#697));
#690 = ORIENTED_EDGE('',*,*,#634,.F.);
#691 = ORIENTED_EDGE('',*,*,#651,.T.);
#692 = ORIENTED_EDGE('',*,*,#675,.T.);
#693 = ORIENTED_EDGE('',*,*,#371,.F.);
#694 = ORIENTED_EDGE('',*,*,#538,.F.);
#695 = ORIENTED_EDGE('',*,*,#562,.F.);
#696 = ORIENTED_EDGE('',*,*,#586,.F.);
#697 = ORIENTED_EDGE('',*,*,#610,.F.);
#698 = FACE_BOUND('',#699,.F.);
#699 = EDGE_LOOP('',(#700));
#700 = ORIENTED_EDGE('',*,*,#480,.T.);
#701 = FACE_BOUND('',#702,.F.);
#702 = EDGE_LOOP('',(#703));
#703 = ORIENTED_EDGE('',*,*,#505,.T.);
#704 = PLANE('',#705);
#705 = AXIS2_PLACEMENT_3D('',#706,#707,#708);
#706 = CARTESIAN_POINT('',(-1.988459148582E-16,-2.9,-18.98258706467));
#707 = DIRECTION('',(0.,1.,0.));
#708 = DIRECTION('',(0.,0.,1.));
#709 = ( GEOMETRIC_REPRESENTATION_CONTEXT(3) 
GLOBAL_UNCERTAINTY_ASSIGNED_CONTEXT((#713)) GLOBAL_UNIT_ASSIGNED_CONTEXT
((#710,#711,#712)) REPRESENTATION_CONTEXT('Context #1',
  '3D Context with UNIT and UNCERTAINTY') );
#710 = ( LENGTH_UNIT() NAMED_UNIT(*) SI_UNIT(.MILLI.,.METRE.) );
#711 = ( NAMED_UNIT(*) PLANE_ANGLE_UNIT() SI_UNIT($,.RADIAN.) );
#712 = ( NAMED_UNIT(*) SI_UNIT($,.STERADIAN.) SOLID_ANGLE_UNIT() );
#713 = UNCERTAINTY_MEASURE_WITH_UNIT(LENGTH_MEASURE(1.E-07),#710,
  'distance_accuracy_value','confusion accuracy');
#714 = PRODUCT_RELATED_PRODUCT_CATEGORY('part',$,(#7));
#715 = MECHANICAL_DESIGN_GEOMETRIC_PRESENTATION_REPRESENTATION('',(#716)
  ,#709);
#716 = STYLED_ITEM('color',(#717),#15);
#717 = PRESENTATION_STYLE_ASSIGNMENT((#718,#726));
#718 = SURFACE_STYLE_USAGE(.BOTH.,#719);
#719 = SURFACE_SIDE_STYLE('',(#720,#724));
#720 = SURFACE_STYLE_FILL_AREA(#721);
#721 = FILL_AREA_STYLE('',(#722));
#722 = FILL_AREA_STYLE_COLOUR('',#723);
#723 = COLOUR_RGB('',0.678431390124,0.709803936702,0.741176476869);
#724 = SURFACE_STYLE_RENDERING_WITH_PROPERTIES(.NORMAL_SHADING.,#723,(
    #725));
#725 = SURFACE_STYLE_TRANSPARENT(0.800000011921);
#726 = CURVE_STYLE('',#727,POSITIVE_LENGTH_MEASURE(0.1),#728);
#727 = DRAUGHTING_PRE_DEFINED_CURVE_FONT('continuous');
#728 = COLOUR_RGB('',9.803921802644E-02,9.803921802644E-02,
  9.803921802644E-02);
ENDSEC;
END-ISO-10303-21;
