ISO-10303-21;
HEADER;
FILE_DESCRIPTION(('FreeCAD Model'),'2;1');
FILE_NAME('Open CASCADE Shape Model','2026-07-24T23:30:43',('Author'),(
    ''),'Open CASCADE STEP processor 7.8','FreeCAD','Unknown');
FILE_SCHEMA(('AUTOMOTIVE_DESIGN { 1 0 10303 214 1 1 1 1 }'));
ENDSEC;
DATA;
#1 = APPLICATION_PROTOCOL_DEFINITION('international standard',
  'automotive_design',2000,#2);
#2 = APPLICATION_CONTEXT(
  'core data for automotive mechanical design processes');
#3 = SHAPE_DEFINITION_REPRESENTATION(#4,#10);
#4 = PRODUCT_DEFINITION_SHAPE('','',#5);
#5 = PRODUCT_DEFINITION('design','',#6,#9);
#6 = PRODUCT_DEFINITION_FORMATION('','',#7);
#7 = PRODUCT('BallonBase','BallonBase','',(#8));
#8 = PRODUCT_CONTEXT('',#2,'mechanical');
#9 = PRODUCT_DEFINITION_CONTEXT('part definition',#2,'design');
#10 = ADVANCED_BREP_SHAPE_REPRESENTATION('',(#11,#15),#1373);
#11 = AXIS2_PLACEMENT_3D('',#12,#13,#14);
#12 = CARTESIAN_POINT('',(0.,0.,0.));
#13 = DIRECTION('',(0.,0.,1.));
#14 = DIRECTION('',(1.,0.,-0.));
#15 = MANIFOLD_SOLID_BREP('',#16);
#16 = CLOSED_SHELL('',(#17,#57,#90,#123,#190,#342,#407,#472,#489,#511,
    #528,#545,#557,#582,#607,#624,#649,#674,#699,#730,#754,#778,#795,
    #820,#837,#854,#991,#1003,#1020,#1045,#1062,#1093,#1117,#1141,#1165,
    #1189,#1213,#1260,#1284,#1308,#1325,#1342,#1361));
#17 = ADVANCED_FACE('',(#18),#52,.F.);
#18 = FACE_BOUND('',#19,.F.);
#19 = EDGE_LOOP('',(#20,#30,#38,#46));
#20 = ORIENTED_EDGE('',*,*,#21,.T.);
#21 = EDGE_CURVE('',#22,#24,#26,.T.);
#22 = VERTEX_POINT('',#23);
#23 = CARTESIAN_POINT('',(-31.99999999999,10.999999999991,0.));
#24 = VERTEX_POINT('',#25);
#25 = CARTESIAN_POINT('',(-31.99999999999,10.999999999991,3.));
#26 = LINE('',#27,#28);
#27 = CARTESIAN_POINT('',(-31.99999999999,10.999999999991,0.));
#28 = VECTOR('',#29,1.);
#29 = DIRECTION('',(0.,0.,1.));
#30 = ORIENTED_EDGE('',*,*,#31,.T.);
#31 = EDGE_CURVE('',#24,#32,#34,.T.);
#32 = VERTEX_POINT('',#33);
#33 = CARTESIAN_POINT('',(-31.99999999999,-10.99999999999,3.));
#34 = LINE('',#35,#36);
#35 = CARTESIAN_POINT('',(-31.99999999999,10.999999999991,3.));
#36 = VECTOR('',#37,1.);
#37 = DIRECTION('',(0.,-1.,0.));
#38 = ORIENTED_EDGE('',*,*,#39,.F.);
#39 = EDGE_CURVE('',#40,#32,#42,.T.);
#40 = VERTEX_POINT('',#41);
#41 = CARTESIAN_POINT('',(-31.99999999999,-10.99999999999,0.));
#42 = LINE('',#43,#44);
#43 = CARTESIAN_POINT('',(-31.99999999999,-10.99999999999,0.));
#44 = VECTOR('',#45,1.);
#45 = DIRECTION('',(0.,0.,1.));
#46 = ORIENTED_EDGE('',*,*,#47,.F.);
#47 = EDGE_CURVE('',#22,#40,#48,.T.);
#48 = LINE('',#49,#50);
#49 = CARTESIAN_POINT('',(-31.99999999999,10.999999999991,0.));
#50 = VECTOR('',#51,1.);
#51 = DIRECTION('',(0.,-1.,0.));
#52 = PLANE('',#53);
#53 = AXIS2_PLACEMENT_3D('',#54,#55,#56);
#54 = CARTESIAN_POINT('',(-31.99999999999,10.999999999991,0.));
#55 = DIRECTION('',(1.,0.,0.));
#56 = DIRECTION('',(0.,-1.,0.));
#57 = ADVANCED_FACE('',(#58),#85,.T.);
#58 = FACE_BOUND('',#59,.F.);
#59 = EDGE_LOOP('',(#60,#70,#77,#78));
#60 = ORIENTED_EDGE('',*,*,#61,.T.);
#61 = EDGE_CURVE('',#62,#64,#66,.T.);
#62 = VERTEX_POINT('',#63);
#63 = CARTESIAN_POINT('',(-28.99999999999,13.999999999991,0.));
#64 = VERTEX_POINT('',#65);
#65 = CARTESIAN_POINT('',(-28.99999999999,13.999999999991,3.));
#66 = LINE('',#67,#68);
#67 = CARTESIAN_POINT('',(-28.99999999999,13.999999999991,0.));
#68 = VECTOR('',#69,1.);
#69 = DIRECTION('',(0.,0.,1.));
#70 = ORIENTED_EDGE('',*,*,#71,.T.);
#71 = EDGE_CURVE('',#64,#24,#72,.T.);
#72 = CIRCLE('',#73,3.);
#73 = AXIS2_PLACEMENT_3D('',#74,#75,#76);
#74 = CARTESIAN_POINT('',(-28.99999999999,10.999999999991,3.));
#75 = DIRECTION('',(0.,0.,1.));
#76 = DIRECTION('',(1.,0.,0.));
#77 = ORIENTED_EDGE('',*,*,#21,.F.);
#78 = ORIENTED_EDGE('',*,*,#79,.F.);
#79 = EDGE_CURVE('',#62,#22,#80,.T.);
#80 = CIRCLE('',#81,3.);
#81 = AXIS2_PLACEMENT_3D('',#82,#83,#84);
#82 = CARTESIAN_POINT('',(-28.99999999999,10.999999999991,0.));
#83 = DIRECTION('',(0.,0.,1.));
#84 = DIRECTION('',(1.,0.,0.));
#85 = CYLINDRICAL_SURFACE('',#86,3.);
#86 = AXIS2_PLACEMENT_3D('',#87,#88,#89);
#87 = CARTESIAN_POINT('',(-28.99999999999,10.999999999991,0.));
#88 = DIRECTION('',(-0.,-0.,-1.));
#89 = DIRECTION('',(1.,0.,0.));
#90 = ADVANCED_FACE('',(#91),#118,.T.);
#91 = FACE_BOUND('',#92,.F.);
#92 = EDGE_LOOP('',(#93,#94,#103,#111));
#93 = ORIENTED_EDGE('',*,*,#39,.T.);
#94 = ORIENTED_EDGE('',*,*,#95,.T.);
#95 = EDGE_CURVE('',#32,#96,#98,.T.);
#96 = VERTEX_POINT('',#97);
#97 = CARTESIAN_POINT('',(-28.99999999999,-13.99999999999,3.));
#98 = CIRCLE('',#99,3.);
#99 = AXIS2_PLACEMENT_3D('',#100,#101,#102);
#100 = CARTESIAN_POINT('',(-28.99999999999,-10.99999999999,3.));
#101 = DIRECTION('',(0.,0.,1.));
#102 = DIRECTION('',(1.,0.,0.));
#103 = ORIENTED_EDGE('',*,*,#104,.F.);
#104 = EDGE_CURVE('',#105,#96,#107,.T.);
#105 = VERTEX_POINT('',#106);
#106 = CARTESIAN_POINT('',(-28.99999999999,-13.99999999999,0.));
#107 = LINE('',#108,#109);
#108 = CARTESIAN_POINT('',(-28.99999999999,-13.99999999999,0.));
#109 = VECTOR('',#110,1.);
#110 = DIRECTION('',(0.,0.,1.));
#111 = ORIENTED_EDGE('',*,*,#112,.F.);
#112 = EDGE_CURVE('',#40,#105,#113,.T.);
#113 = CIRCLE('',#114,3.);
#114 = AXIS2_PLACEMENT_3D('',#115,#116,#117);
#115 = CARTESIAN_POINT('',(-28.99999999999,-10.99999999999,0.));
#116 = DIRECTION('',(0.,0.,1.));
#117 = DIRECTION('',(1.,0.,0.));
#118 = CYLINDRICAL_SURFACE('',#119,3.);
#119 = AXIS2_PLACEMENT_3D('',#120,#121,#122);
#120 = CARTESIAN_POINT('',(-28.99999999999,-10.99999999999,0.));
#121 = DIRECTION('',(-0.,-0.,-1.));
#122 = DIRECTION('',(1.,0.,0.));
#123 = ADVANCED_FACE('',(#124,#151),#185,.F.);
#124 = FACE_BOUND('',#125,.F.);
#125 = EDGE_LOOP('',(#126,#127,#128,#129,#137,#145));
#126 = ORIENTED_EDGE('',*,*,#79,.T.);
#127 = ORIENTED_EDGE('',*,*,#47,.T.);
#128 = ORIENTED_EDGE('',*,*,#112,.T.);
#129 = ORIENTED_EDGE('',*,*,#130,.T.);
#130 = EDGE_CURVE('',#105,#131,#133,.T.);
#131 = VERTEX_POINT('',#132);
#132 = CARTESIAN_POINT('',(-24.,-13.99999999999,0.));
#133 = LINE('',#134,#135);
#134 = CARTESIAN_POINT('',(-28.99999999999,-13.99999999999,0.));
#135 = VECTOR('',#136,1.);
#136 = DIRECTION('',(1.,0.,0.));
#137 = ORIENTED_EDGE('',*,*,#138,.T.);
#138 = EDGE_CURVE('',#131,#139,#141,.T.);
#139 = VERTEX_POINT('',#140);
#140 = CARTESIAN_POINT('',(-24.,14.000000000009,-6.E-15));
#141 = LINE('',#142,#143);
#142 = CARTESIAN_POINT('',(-24.,-13.99999999999,0.));
#143 = VECTOR('',#144,1.);
#144 = DIRECTION('',(0.,1.,-2.2E-16));
#145 = ORIENTED_EDGE('',*,*,#146,.T.);
#146 = EDGE_CURVE('',#139,#62,#147,.T.);
#147 = LINE('',#148,#149);
#148 = CARTESIAN_POINT('',(28.999999999991,13.999999999991,0.));
#149 = VECTOR('',#150,1.);
#150 = DIRECTION('',(-1.,0.,0.));
#151 = FACE_BOUND('',#152,.F.);
#152 = EDGE_LOOP('',(#153,#163,#171,#179));
#153 = ORIENTED_EDGE('',*,*,#154,.F.);
#154 = EDGE_CURVE('',#155,#157,#159,.T.);
#155 = VERTEX_POINT('',#156);
#156 = CARTESIAN_POINT('',(-29.,11.,0.));
#157 = VERTEX_POINT('',#158);
#158 = CARTESIAN_POINT('',(-29.,-11.,0.));
#159 = LINE('',#160,#161);
#160 = CARTESIAN_POINT('',(-29.,11.,0.));
#161 = VECTOR('',#162,1.);
#162 = DIRECTION('',(0.,-1.,0.));
#163 = ORIENTED_EDGE('',*,*,#164,.F.);
#164 = EDGE_CURVE('',#165,#155,#167,.T.);
#165 = VERTEX_POINT('',#166);
#166 = CARTESIAN_POINT('',(-26.,11.,0.));
#167 = LINE('',#168,#169);
#168 = CARTESIAN_POINT('',(-26.,11.,0.));
#169 = VECTOR('',#170,1.);
#170 = DIRECTION('',(-1.,0.,0.));
#171 = ORIENTED_EDGE('',*,*,#172,.F.);
#172 = EDGE_CURVE('',#173,#165,#175,.T.);
#173 = VERTEX_POINT('',#174);
#174 = CARTESIAN_POINT('',(-26.,-11.,0.));
#175 = LINE('',#176,#177);
#176 = CARTESIAN_POINT('',(-26.,-11.,0.));
#177 = VECTOR('',#178,1.);
#178 = DIRECTION('',(0.,1.,0.));
#179 = ORIENTED_EDGE('',*,*,#180,.F.);
#180 = EDGE_CURVE('',#157,#173,#181,.T.);
#181 = LINE('',#182,#183);
#182 = CARTESIAN_POINT('',(-29.,-11.,0.));
#183 = VECTOR('',#184,1.);
#184 = DIRECTION('',(1.,0.,0.));
#185 = PLANE('',#186);
#186 = AXIS2_PLACEMENT_3D('',#187,#188,#189);
#187 = CARTESIAN_POINT('',(-1.17E-15,-2.E-16,0.));
#188 = DIRECTION('',(0.,0.,1.));
#189 = DIRECTION('',(1.,0.,0.));
#190 = ADVANCED_FACE('',(#191,#236,#270,#281,#292,#303),#337,.T.);
#191 = FACE_BOUND('',#192,.T.);
#192 = EDGE_LOOP('',(#193,#194,#195,#203,#212,#220,#229,#235));
#193 = ORIENTED_EDGE('',*,*,#31,.T.);
#194 = ORIENTED_EDGE('',*,*,#95,.T.);
#195 = ORIENTED_EDGE('',*,*,#196,.T.);
#196 = EDGE_CURVE('',#96,#197,#199,.T.);
#197 = VERTEX_POINT('',#198);
#198 = CARTESIAN_POINT('',(28.999999999991,-13.99999999999,3.));
#199 = LINE('',#200,#201);
#200 = CARTESIAN_POINT('',(-28.99999999999,-13.99999999999,3.));
#201 = VECTOR('',#202,1.);
#202 = DIRECTION('',(1.,0.,0.));
#203 = ORIENTED_EDGE('',*,*,#204,.T.);
#204 = EDGE_CURVE('',#197,#205,#207,.T.);
#205 = VERTEX_POINT('',#206);
#206 = CARTESIAN_POINT('',(31.999999999991,-10.99999999999,3.));
#207 = CIRCLE('',#208,3.);
#208 = AXIS2_PLACEMENT_3D('',#209,#210,#211);
#209 = CARTESIAN_POINT('',(28.999999999991,-10.99999999999,3.));
#210 = DIRECTION('',(0.,0.,1.));
#211 = DIRECTION('',(1.,0.,0.));
#212 = ORIENTED_EDGE('',*,*,#213,.T.);
#213 = EDGE_CURVE('',#205,#214,#216,.T.);
#214 = VERTEX_POINT('',#215);
#215 = CARTESIAN_POINT('',(31.999999999991,10.999999999991,3.));
#216 = LINE('',#217,#218);
#217 = CARTESIAN_POINT('',(31.999999999991,-10.99999999999,3.));
#218 = VECTOR('',#219,1.);
#219 = DIRECTION('',(0.,1.,0.));
#220 = ORIENTED_EDGE('',*,*,#221,.T.);
#221 = EDGE_CURVE('',#214,#222,#224,.T.);
#222 = VERTEX_POINT('',#223);
#223 = CARTESIAN_POINT('',(28.999999999991,13.999999999991,3.));
#224 = CIRCLE('',#225,3.);
#225 = AXIS2_PLACEMENT_3D('',#226,#227,#228);
#226 = CARTESIAN_POINT('',(28.999999999991,10.999999999991,3.));
#227 = DIRECTION('',(0.,0.,1.));
#228 = DIRECTION('',(1.,0.,0.));
#229 = ORIENTED_EDGE('',*,*,#230,.T.);
#230 = EDGE_CURVE('',#222,#64,#231,.T.);
#231 = LINE('',#232,#233);
#232 = CARTESIAN_POINT('',(28.999999999991,13.999999999991,3.));
#233 = VECTOR('',#234,1.);
#234 = DIRECTION('',(-1.,0.,0.));
#235 = ORIENTED_EDGE('',*,*,#71,.T.);
#236 = FACE_BOUND('',#237,.T.);
#237 = EDGE_LOOP('',(#238,#248,#256,#264));
#238 = ORIENTED_EDGE('',*,*,#239,.F.);
#239 = EDGE_CURVE('',#240,#242,#244,.T.);
#240 = VERTEX_POINT('',#241);
#241 = CARTESIAN_POINT('',(-29.,11.,3.));
#242 = VERTEX_POINT('',#243);
#243 = CARTESIAN_POINT('',(-29.,-11.,3.));
#244 = LINE('',#245,#246);
#245 = CARTESIAN_POINT('',(-29.,11.,3.));
#246 = VECTOR('',#247,1.);
#247 = DIRECTION('',(0.,-1.,0.));
#248 = ORIENTED_EDGE('',*,*,#249,.F.);
#249 = EDGE_CURVE('',#250,#240,#252,.T.);
#250 = VERTEX_POINT('',#251);
#251 = CARTESIAN_POINT('',(-26.,11.,3.));
#252 = LINE('',#253,#254);
#253 = CARTESIAN_POINT('',(-26.,11.,3.));
#254 = VECTOR('',#255,1.);
#255 = DIRECTION('',(-1.,0.,0.));
#256 = ORIENTED_EDGE('',*,*,#257,.F.);
#257 = EDGE_CURVE('',#258,#250,#260,.T.);
#258 = VERTEX_POINT('',#259);
#259 = CARTESIAN_POINT('',(-26.,-11.,3.));
#260 = LINE('',#261,#262);
#261 = CARTESIAN_POINT('',(-26.,-11.,3.));
#262 = VECTOR('',#263,1.);
#263 = DIRECTION('',(0.,1.,0.));
#264 = ORIENTED_EDGE('',*,*,#265,.F.);
#265 = EDGE_CURVE('',#242,#258,#266,.T.);
#266 = LINE('',#267,#268);
#267 = CARTESIAN_POINT('',(-29.,-11.,3.));
#268 = VECTOR('',#269,1.);
#269 = DIRECTION('',(1.,0.,0.));
#270 = FACE_BOUND('',#271,.T.);
#271 = EDGE_LOOP('',(#272));
#272 = ORIENTED_EDGE('',*,*,#273,.F.);
#273 = EDGE_CURVE('',#274,#274,#276,.T.);
#274 = VERTEX_POINT('',#275);
#275 = CARTESIAN_POINT('',(-11.35,0.,3.));
#276 = CIRCLE('',#277,3.65);
#277 = AXIS2_PLACEMENT_3D('',#278,#279,#280);
#278 = CARTESIAN_POINT('',(-15.,0.,3.));
#279 = DIRECTION('',(0.,0.,1.));
#280 = DIRECTION('',(1.,0.,0.));
#281 = FACE_BOUND('',#282,.T.);
#282 = EDGE_LOOP('',(#283));
#283 = ORIENTED_EDGE('',*,*,#284,.T.);
#284 = EDGE_CURVE('',#285,#285,#287,.T.);
#285 = VERTEX_POINT('',#286);
#286 = CARTESIAN_POINT('',(1.,0.,3.));
#287 = CIRCLE('',#288,1.);
#288 = AXIS2_PLACEMENT_3D('',#289,#290,#291);
#289 = CARTESIAN_POINT('',(0.,0.,3.));
#290 = DIRECTION('',(0.,-2.2E-16,-1.));
#291 = DIRECTION('',(1.,0.,0.));
#292 = FACE_BOUND('',#293,.T.);
#293 = EDGE_LOOP('',(#294));
#294 = ORIENTED_EDGE('',*,*,#295,.F.);
#295 = EDGE_CURVE('',#296,#296,#298,.T.);
#296 = VERTEX_POINT('',#297);
#297 = CARTESIAN_POINT('',(18.65,0.,3.));
#298 = CIRCLE('',#299,3.65);
#299 = AXIS2_PLACEMENT_3D('',#300,#301,#302);
#300 = CARTESIAN_POINT('',(15.,0.,3.));
#301 = DIRECTION('',(0.,0.,1.));
#302 = DIRECTION('',(1.,0.,0.));
#303 = FACE_BOUND('',#304,.T.);
#304 = EDGE_LOOP('',(#305,#315,#323,#331));
#305 = ORIENTED_EDGE('',*,*,#306,.F.);
#306 = EDGE_CURVE('',#307,#309,#311,.T.);
#307 = VERTEX_POINT('',#308);
#308 = CARTESIAN_POINT('',(26.,11.,3.));
#309 = VERTEX_POINT('',#310);
#310 = CARTESIAN_POINT('',(26.,-11.,3.));
#311 = LINE('',#312,#313);
#312 = CARTESIAN_POINT('',(26.,11.,3.));
#313 = VECTOR('',#314,1.);
#314 = DIRECTION('',(0.,-1.,0.));
#315 = ORIENTED_EDGE('',*,*,#316,.F.);
#316 = EDGE_CURVE('',#317,#307,#319,.T.);
#317 = VERTEX_POINT('',#318);
#318 = CARTESIAN_POINT('',(29.,11.,3.));
#319 = LINE('',#320,#321);
#320 = CARTESIAN_POINT('',(29.,11.,3.));
#321 = VECTOR('',#322,1.);
#322 = DIRECTION('',(-1.,0.,0.));
#323 = ORIENTED_EDGE('',*,*,#324,.F.);
#324 = EDGE_CURVE('',#325,#317,#327,.T.);
#325 = VERTEX_POINT('',#326);
#326 = CARTESIAN_POINT('',(29.,-11.,3.));
#327 = LINE('',#328,#329);
#328 = CARTESIAN_POINT('',(29.,-11.,3.));
#329 = VECTOR('',#330,1.);
#330 = DIRECTION('',(0.,1.,0.));
#331 = ORIENTED_EDGE('',*,*,#332,.F.);
#332 = EDGE_CURVE('',#309,#325,#333,.T.);
#333 = LINE('',#334,#335);
#334 = CARTESIAN_POINT('',(26.,-11.,3.));
#335 = VECTOR('',#336,1.);
#336 = DIRECTION('',(1.,0.,0.));
#337 = PLANE('',#338);
#338 = AXIS2_PLACEMENT_3D('',#339,#340,#341);
#339 = CARTESIAN_POINT('',(-1.17E-15,-2.E-16,3.));
#340 = DIRECTION('',(0.,0.,1.));
#341 = DIRECTION('',(1.,0.,0.));
#342 = ADVANCED_FACE('',(#343),#402,.T.);
#343 = FACE_BOUND('',#344,.T.);
#344 = EDGE_LOOP('',(#345,#353,#361,#369,#377,#385,#393,#399,#400,#401)
  );
#345 = ORIENTED_EDGE('',*,*,#346,.F.);
#346 = EDGE_CURVE('',#347,#222,#349,.T.);
#347 = VERTEX_POINT('',#348);
#348 = CARTESIAN_POINT('',(28.999999999991,13.999999999991,0.));
#349 = LINE('',#350,#351);
#350 = CARTESIAN_POINT('',(28.999999999991,13.999999999991,0.));
#351 = VECTOR('',#352,1.);
#352 = DIRECTION('',(0.,0.,1.));
#353 = ORIENTED_EDGE('',*,*,#354,.T.);
#354 = EDGE_CURVE('',#347,#355,#357,.T.);
#355 = VERTEX_POINT('',#356);
#356 = CARTESIAN_POINT('',(24.,14.000000000009,-6.E-15));
#357 = LINE('',#358,#359);
#358 = CARTESIAN_POINT('',(28.999999999991,13.999999999991,0.));
#359 = VECTOR('',#360,1.);
#360 = DIRECTION('',(-1.,0.,0.));
#361 = ORIENTED_EDGE('',*,*,#362,.T.);
#362 = EDGE_CURVE('',#355,#363,#365,.T.);
#363 = VERTEX_POINT('',#364);
#364 = CARTESIAN_POINT('',(19.000000000001,14.000000000009,-5.));
#365 = LINE('',#366,#367);
#366 = CARTESIAN_POINT('',(24.,14.000000000009,-5.73E-15));
#367 = VECTOR('',#368,1.);
#368 = DIRECTION('',(-0.707106781186,-0.,-0.707106781187));
#369 = ORIENTED_EDGE('',*,*,#370,.F.);
#370 = EDGE_CURVE('',#371,#363,#373,.T.);
#371 = VERTEX_POINT('',#372);
#372 = CARTESIAN_POINT('',(19.000000000001,14.000000000009,-6.));
#373 = LINE('',#374,#375);
#374 = CARTESIAN_POINT('',(19.000000000001,14.000000000009,-6.));
#375 = VECTOR('',#376,1.);
#376 = DIRECTION('',(0.,0.,1.));
#377 = ORIENTED_EDGE('',*,*,#378,.F.);
#378 = EDGE_CURVE('',#379,#371,#381,.T.);
#379 = VERTEX_POINT('',#380);
#380 = CARTESIAN_POINT('',(-19.,14.000000000009,-6.));
#381 = LINE('',#382,#383);
#382 = CARTESIAN_POINT('',(-19.,14.000000000009,-6.));
#383 = VECTOR('',#384,1.);
#384 = DIRECTION('',(1.,0.,0.));
#385 = ORIENTED_EDGE('',*,*,#386,.F.);
#386 = EDGE_CURVE('',#387,#379,#389,.T.);
#387 = VERTEX_POINT('',#388);
#388 = CARTESIAN_POINT('',(-19.,14.000000000009,-5.));
#389 = LINE('',#390,#391);
#390 = CARTESIAN_POINT('',(-19.,14.000000000009,-5.));
#391 = VECTOR('',#392,1.);
#392 = DIRECTION('',(0.,0.,-1.));
#393 = ORIENTED_EDGE('',*,*,#394,.T.);
#394 = EDGE_CURVE('',#387,#139,#395,.T.);
#395 = LINE('',#396,#397);
#396 = CARTESIAN_POINT('',(-19.,14.000000000009,-5.));
#397 = VECTOR('',#398,1.);
#398 = DIRECTION('',(-0.707106781187,0.,0.707106781187));
#399 = ORIENTED_EDGE('',*,*,#146,.T.);
#400 = ORIENTED_EDGE('',*,*,#61,.T.);
#401 = ORIENTED_EDGE('',*,*,#230,.F.);
#402 = PLANE('',#403);
#403 = AXIS2_PLACEMENT_3D('',#404,#405,#406);
#404 = CARTESIAN_POINT('',(4.968E-14,13.999999999999,-0.712921933248));
#405 = DIRECTION('',(0.,1.,1.98145E-12));
#406 = DIRECTION('',(0.,-1.98145E-12,1.));
#407 = ADVANCED_FACE('',(#408),#467,.T.);
#408 = FACE_BOUND('',#409,.T.);
#409 = EDGE_LOOP('',(#410,#411,#412,#420,#428,#436,#444,#452,#460,#466)
  );
#410 = ORIENTED_EDGE('',*,*,#104,.F.);
#411 = ORIENTED_EDGE('',*,*,#130,.T.);
#412 = ORIENTED_EDGE('',*,*,#413,.F.);
#413 = EDGE_CURVE('',#414,#131,#416,.T.);
#414 = VERTEX_POINT('',#415);
#415 = CARTESIAN_POINT('',(-19.,-13.99999999999,-5.));
#416 = LINE('',#417,#418);
#417 = CARTESIAN_POINT('',(-19.,-13.99999999999,-5.));
#418 = VECTOR('',#419,1.);
#419 = DIRECTION('',(-0.707106781187,0.,0.707106781187));
#420 = ORIENTED_EDGE('',*,*,#421,.T.);
#421 = EDGE_CURVE('',#414,#422,#424,.T.);
#422 = VERTEX_POINT('',#423);
#423 = CARTESIAN_POINT('',(-19.,-13.99999999999,-6.));
#424 = LINE('',#425,#426);
#425 = CARTESIAN_POINT('',(-19.,-13.99999999999,-5.));
#426 = VECTOR('',#427,1.);
#427 = DIRECTION('',(0.,0.,-1.));
#428 = ORIENTED_EDGE('',*,*,#429,.T.);
#429 = EDGE_CURVE('',#422,#430,#432,.T.);
#430 = VERTEX_POINT('',#431);
#431 = CARTESIAN_POINT('',(19.000000000001,-13.99999999999,-6.));
#432 = LINE('',#433,#434);
#433 = CARTESIAN_POINT('',(-19.,-13.99999999999,-6.));
#434 = VECTOR('',#435,1.);
#435 = DIRECTION('',(1.,0.,0.));
#436 = ORIENTED_EDGE('',*,*,#437,.T.);
#437 = EDGE_CURVE('',#430,#438,#440,.T.);
#438 = VERTEX_POINT('',#439);
#439 = CARTESIAN_POINT('',(19.000000000001,-13.99999999999,-5.));
#440 = LINE('',#441,#442);
#441 = CARTESIAN_POINT('',(19.000000000001,-13.99999999999,-6.));
#442 = VECTOR('',#443,1.);
#443 = DIRECTION('',(0.,0.,1.));
#444 = ORIENTED_EDGE('',*,*,#445,.F.);
#445 = EDGE_CURVE('',#446,#438,#448,.T.);
#446 = VERTEX_POINT('',#447);
#447 = CARTESIAN_POINT('',(24.,-13.99999999999,0.));
#448 = LINE('',#449,#450);
#449 = CARTESIAN_POINT('',(24.,-13.99999999999,2.7E-16));
#450 = VECTOR('',#451,1.);
#451 = DIRECTION('',(-0.707106781186,-0.,-0.707106781187));
#452 = ORIENTED_EDGE('',*,*,#453,.T.);
#453 = EDGE_CURVE('',#446,#454,#456,.T.);
#454 = VERTEX_POINT('',#455);
#455 = CARTESIAN_POINT('',(28.999999999991,-13.99999999999,0.));
#456 = LINE('',#457,#458);
#457 = CARTESIAN_POINT('',(-28.99999999999,-13.99999999999,0.));
#458 = VECTOR('',#459,1.);
#459 = DIRECTION('',(1.,0.,0.));
#460 = ORIENTED_EDGE('',*,*,#461,.T.);
#461 = EDGE_CURVE('',#454,#197,#462,.T.);
#462 = LINE('',#463,#464);
#463 = CARTESIAN_POINT('',(28.999999999991,-13.99999999999,0.));
#464 = VECTOR('',#465,1.);
#465 = DIRECTION('',(0.,0.,1.));
#466 = ORIENTED_EDGE('',*,*,#196,.F.);
#467 = PLANE('',#468);
#468 = AXIS2_PLACEMENT_3D('',#469,#470,#471);
#469 = CARTESIAN_POINT('',(4.968E-14,-13.99999999999,-0.712921933248));
#470 = DIRECTION('',(-0.,-1.,-0.));
#471 = DIRECTION('',(0.,0.,-1.));
#472 = ADVANCED_FACE('',(#473),#484,.F.);
#473 = FACE_BOUND('',#474,.F.);
#474 = EDGE_LOOP('',(#475,#481,#482,#483));
#475 = ORIENTED_EDGE('',*,*,#476,.T.);
#476 = EDGE_CURVE('',#414,#387,#477,.T.);
#477 = LINE('',#478,#479);
#478 = CARTESIAN_POINT('',(-19.,-13.99999999999,-5.));
#479 = VECTOR('',#480,1.);
#480 = DIRECTION('',(0.,1.,-2.2E-16));
#481 = ORIENTED_EDGE('',*,*,#394,.T.);
#482 = ORIENTED_EDGE('',*,*,#138,.F.);
#483 = ORIENTED_EDGE('',*,*,#413,.F.);
#484 = PLANE('',#485);
#485 = AXIS2_PLACEMENT_3D('',#486,#487,#488);
#486 = CARTESIAN_POINT('',(-19.,-13.99999999999,-5.));
#487 = DIRECTION('',(0.707106781187,1.6E-16,0.707106781187));
#488 = DIRECTION('',(-0.707106781187,1.6E-16,0.707106781187));
#489 = ADVANCED_FACE('',(#490),#506,.T.);
#490 = FACE_BOUND('',#491,.T.);
#491 = EDGE_LOOP('',(#492,#498,#499,#505));
#492 = ORIENTED_EDGE('',*,*,#493,.T.);
#493 = EDGE_CURVE('',#155,#240,#494,.T.);
#494 = LINE('',#495,#496);
#495 = CARTESIAN_POINT('',(-29.,11.,0.));
#496 = VECTOR('',#497,1.);
#497 = DIRECTION('',(0.,0.,1.));
#498 = ORIENTED_EDGE('',*,*,#239,.T.);
#499 = ORIENTED_EDGE('',*,*,#500,.F.);
#500 = EDGE_CURVE('',#157,#242,#501,.T.);
#501 = LINE('',#502,#503);
#502 = CARTESIAN_POINT('',(-29.,-11.,0.));
#503 = VECTOR('',#504,1.);
#504 = DIRECTION('',(0.,0.,1.));
#505 = ORIENTED_EDGE('',*,*,#154,.F.);
#506 = PLANE('',#507);
#507 = AXIS2_PLACEMENT_3D('',#508,#509,#510);
#508 = CARTESIAN_POINT('',(-29.,11.,0.));
#509 = DIRECTION('',(1.,0.,0.));
#510 = DIRECTION('',(0.,-1.,0.));
#511 = ADVANCED_FACE('',(#512),#523,.T.);
#512 = FACE_BOUND('',#513,.T.);
#513 = EDGE_LOOP('',(#514,#520,#521,#522));
#514 = ORIENTED_EDGE('',*,*,#515,.T.);
#515 = EDGE_CURVE('',#165,#250,#516,.T.);
#516 = LINE('',#517,#518);
#517 = CARTESIAN_POINT('',(-26.,11.,0.));
#518 = VECTOR('',#519,1.);
#519 = DIRECTION('',(0.,0.,1.));
#520 = ORIENTED_EDGE('',*,*,#249,.T.);
#521 = ORIENTED_EDGE('',*,*,#493,.F.);
#522 = ORIENTED_EDGE('',*,*,#164,.F.);
#523 = PLANE('',#524);
#524 = AXIS2_PLACEMENT_3D('',#525,#526,#527);
#525 = CARTESIAN_POINT('',(-26.,11.,0.));
#526 = DIRECTION('',(0.,-1.,0.));
#527 = DIRECTION('',(-1.,0.,0.));
#528 = ADVANCED_FACE('',(#529),#540,.T.);
#529 = FACE_BOUND('',#530,.T.);
#530 = EDGE_LOOP('',(#531,#532,#533,#539));
#531 = ORIENTED_EDGE('',*,*,#500,.T.);
#532 = ORIENTED_EDGE('',*,*,#265,.T.);
#533 = ORIENTED_EDGE('',*,*,#534,.F.);
#534 = EDGE_CURVE('',#173,#258,#535,.T.);
#535 = LINE('',#536,#537);
#536 = CARTESIAN_POINT('',(-26.,-11.,0.));
#537 = VECTOR('',#538,1.);
#538 = DIRECTION('',(0.,0.,1.));
#539 = ORIENTED_EDGE('',*,*,#180,.F.);
#540 = PLANE('',#541);
#541 = AXIS2_PLACEMENT_3D('',#542,#543,#544);
#542 = CARTESIAN_POINT('',(-29.,-11.,0.));
#543 = DIRECTION('',(0.,1.,0.));
#544 = DIRECTION('',(1.,0.,0.));
#545 = ADVANCED_FACE('',(#546),#552,.T.);
#546 = FACE_BOUND('',#547,.T.);
#547 = EDGE_LOOP('',(#548,#549,#550,#551));
#548 = ORIENTED_EDGE('',*,*,#534,.T.);
#549 = ORIENTED_EDGE('',*,*,#257,.T.);
#550 = ORIENTED_EDGE('',*,*,#515,.F.);
#551 = ORIENTED_EDGE('',*,*,#172,.F.);
#552 = PLANE('',#553);
#553 = AXIS2_PLACEMENT_3D('',#554,#555,#556);
#554 = CARTESIAN_POINT('',(-26.,-11.,0.));
#555 = DIRECTION('',(-1.,0.,0.));
#556 = DIRECTION('',(0.,1.,0.));
#557 = ADVANCED_FACE('',(#558),#577,.T.);
#558 = FACE_BOUND('',#559,.F.);
#559 = EDGE_LOOP('',(#560,#568,#569,#570));
#560 = ORIENTED_EDGE('',*,*,#561,.T.);
#561 = EDGE_CURVE('',#562,#214,#564,.T.);
#562 = VERTEX_POINT('',#563);
#563 = CARTESIAN_POINT('',(31.999999999991,10.999999999991,0.));
#564 = LINE('',#565,#566);
#565 = CARTESIAN_POINT('',(31.999999999991,10.999999999991,0.));
#566 = VECTOR('',#567,1.);
#567 = DIRECTION('',(0.,0.,1.));
#568 = ORIENTED_EDGE('',*,*,#221,.T.);
#569 = ORIENTED_EDGE('',*,*,#346,.F.);
#570 = ORIENTED_EDGE('',*,*,#571,.F.);
#571 = EDGE_CURVE('',#562,#347,#572,.T.);
#572 = CIRCLE('',#573,3.);
#573 = AXIS2_PLACEMENT_3D('',#574,#575,#576);
#574 = CARTESIAN_POINT('',(28.999999999991,10.999999999991,0.));
#575 = DIRECTION('',(0.,0.,1.));
#576 = DIRECTION('',(1.,0.,0.));
#577 = CYLINDRICAL_SURFACE('',#578,3.);
#578 = AXIS2_PLACEMENT_3D('',#579,#580,#581);
#579 = CARTESIAN_POINT('',(28.999999999991,10.999999999991,0.));
#580 = DIRECTION('',(-0.,-0.,-1.));
#581 = DIRECTION('',(1.,0.,0.));
#582 = ADVANCED_FACE('',(#583),#602,.T.);
#583 = FACE_BOUND('',#584,.F.);
#584 = EDGE_LOOP('',(#585,#586,#587,#595));
#585 = ORIENTED_EDGE('',*,*,#461,.T.);
#586 = ORIENTED_EDGE('',*,*,#204,.T.);
#587 = ORIENTED_EDGE('',*,*,#588,.F.);
#588 = EDGE_CURVE('',#589,#205,#591,.T.);
#589 = VERTEX_POINT('',#590);
#590 = CARTESIAN_POINT('',(31.999999999991,-10.99999999999,0.));
#591 = LINE('',#592,#593);
#592 = CARTESIAN_POINT('',(31.999999999991,-10.99999999999,0.));
#593 = VECTOR('',#594,1.);
#594 = DIRECTION('',(0.,0.,1.));
#595 = ORIENTED_EDGE('',*,*,#596,.F.);
#596 = EDGE_CURVE('',#454,#589,#597,.T.);
#597 = CIRCLE('',#598,3.);
#598 = AXIS2_PLACEMENT_3D('',#599,#600,#601);
#599 = CARTESIAN_POINT('',(28.999999999991,-10.99999999999,0.));
#600 = DIRECTION('',(0.,0.,1.));
#601 = DIRECTION('',(1.,0.,0.));
#602 = CYLINDRICAL_SURFACE('',#603,3.);
#603 = AXIS2_PLACEMENT_3D('',#604,#605,#606);
#604 = CARTESIAN_POINT('',(28.999999999991,-10.99999999999,0.));
#605 = DIRECTION('',(-0.,-0.,-1.));
#606 = DIRECTION('',(1.,0.,0.));
#607 = ADVANCED_FACE('',(#608),#619,.F.);
#608 = FACE_BOUND('',#609,.F.);
#609 = EDGE_LOOP('',(#610,#611,#612,#613));
#610 = ORIENTED_EDGE('',*,*,#588,.T.);
#611 = ORIENTED_EDGE('',*,*,#213,.T.);
#612 = ORIENTED_EDGE('',*,*,#561,.F.);
#613 = ORIENTED_EDGE('',*,*,#614,.F.);
#614 = EDGE_CURVE('',#589,#562,#615,.T.);
#615 = LINE('',#616,#617);
#616 = CARTESIAN_POINT('',(31.999999999991,-10.99999999999,0.));
#617 = VECTOR('',#618,1.);
#618 = DIRECTION('',(0.,1.,0.));
#619 = PLANE('',#620);
#620 = AXIS2_PLACEMENT_3D('',#621,#622,#623);
#621 = CARTESIAN_POINT('',(31.999999999991,-10.99999999999,0.));
#622 = DIRECTION('',(-1.,0.,0.));
#623 = DIRECTION('',(0.,1.,0.));
#624 = ADVANCED_FACE('',(#625),#644,.F.);
#625 = FACE_BOUND('',#626,.T.);
#626 = EDGE_LOOP('',(#627,#635,#636,#637));
#627 = ORIENTED_EDGE('',*,*,#628,.F.);
#628 = EDGE_CURVE('',#274,#629,#631,.T.);
#629 = VERTEX_POINT('',#630);
#630 = CARTESIAN_POINT('',(-13.3,0.,1.05));
#631 = LINE('',#632,#633);
#632 = CARTESIAN_POINT('',(-11.35,0.,3.));
#633 = VECTOR('',#634,1.);
#634 = DIRECTION('',(-0.707106781187,0.,-0.707106781187));
#635 = ORIENTED_EDGE('',*,*,#273,.T.);
#636 = ORIENTED_EDGE('',*,*,#628,.T.);
#637 = ORIENTED_EDGE('',*,*,#638,.F.);
#638 = EDGE_CURVE('',#629,#629,#639,.T.);
#639 = CIRCLE('',#640,1.7);
#640 = AXIS2_PLACEMENT_3D('',#641,#642,#643);
#641 = CARTESIAN_POINT('',(-15.,0.,1.05));
#642 = DIRECTION('',(0.,0.,1.));
#643 = DIRECTION('',(1.,0.,0.));
#644 = CONICAL_SURFACE('',#645,3.65,0.785398163397);
#645 = AXIS2_PLACEMENT_3D('',#646,#647,#648);
#646 = CARTESIAN_POINT('',(-15.,0.,3.));
#647 = DIRECTION('',(0.,0.,1.));
#648 = DIRECTION('',(1.,0.,0.));
#649 = ADVANCED_FACE('',(#650),#669,.F.);
#650 = FACE_BOUND('',#651,.F.);
#651 = EDGE_LOOP('',(#652,#660,#661,#662));
#652 = ORIENTED_EDGE('',*,*,#653,.F.);
#653 = EDGE_CURVE('',#285,#654,#656,.T.);
#654 = VERTEX_POINT('',#655);
#655 = CARTESIAN_POINT('',(1.,0.,2.8));
#656 = LINE('',#657,#658);
#657 = CARTESIAN_POINT('',(1.,0.,3.));
#658 = VECTOR('',#659,1.);
#659 = DIRECTION('',(0.,2.2E-16,-1.));
#660 = ORIENTED_EDGE('',*,*,#284,.T.);
#661 = ORIENTED_EDGE('',*,*,#653,.T.);
#662 = ORIENTED_EDGE('',*,*,#663,.F.);
#663 = EDGE_CURVE('',#654,#654,#664,.T.);
#664 = CIRCLE('',#665,1.);
#665 = AXIS2_PLACEMENT_3D('',#666,#667,#668);
#666 = CARTESIAN_POINT('',(0.,-4.E-17,2.8));
#667 = DIRECTION('',(0.,-2.2E-16,-1.));
#668 = DIRECTION('',(1.,0.,0.));
#669 = CYLINDRICAL_SURFACE('',#670,1.);
#670 = AXIS2_PLACEMENT_3D('',#671,#672,#673);
#671 = CARTESIAN_POINT('',(0.,0.,3.));
#672 = DIRECTION('',(0.,-2.2E-16,-1.));
#673 = DIRECTION('',(1.,0.,0.));
#674 = ADVANCED_FACE('',(#675),#694,.F.);
#675 = FACE_BOUND('',#676,.T.);
#676 = EDGE_LOOP('',(#677,#685,#686,#687));
#677 = ORIENTED_EDGE('',*,*,#678,.F.);
#678 = EDGE_CURVE('',#296,#679,#681,.T.);
#679 = VERTEX_POINT('',#680);
#680 = CARTESIAN_POINT('',(16.7,0.,1.05));
#681 = LINE('',#682,#683);
#682 = CARTESIAN_POINT('',(18.65,0.,3.));
#683 = VECTOR('',#684,1.);
#684 = DIRECTION('',(-0.707106781187,0.,-0.707106781187));
#685 = ORIENTED_EDGE('',*,*,#295,.T.);
#686 = ORIENTED_EDGE('',*,*,#678,.T.);
#687 = ORIENTED_EDGE('',*,*,#688,.F.);
#688 = EDGE_CURVE('',#679,#679,#689,.T.);
#689 = CIRCLE('',#690,1.7);
#690 = AXIS2_PLACEMENT_3D('',#691,#692,#693);
#691 = CARTESIAN_POINT('',(15.,0.,1.05));
#692 = DIRECTION('',(0.,0.,1.));
#693 = DIRECTION('',(1.,0.,0.));
#694 = CONICAL_SURFACE('',#695,3.65,0.785398163397);
#695 = AXIS2_PLACEMENT_3D('',#696,#697,#698);
#696 = CARTESIAN_POINT('',(15.,0.,3.));
#697 = DIRECTION('',(0.,0.,1.));
#698 = DIRECTION('',(1.,0.,0.));
#699 = ADVANCED_FACE('',(#700),#725,.T.);
#700 = FACE_BOUND('',#701,.T.);
#701 = EDGE_LOOP('',(#702,#710,#711,#719));
#702 = ORIENTED_EDGE('',*,*,#703,.T.);
#703 = EDGE_CURVE('',#704,#307,#706,.T.);
#704 = VERTEX_POINT('',#705);
#705 = CARTESIAN_POINT('',(26.,11.,0.));
#706 = LINE('',#707,#708);
#707 = CARTESIAN_POINT('',(26.,11.,0.));
#708 = VECTOR('',#709,1.);
#709 = DIRECTION('',(0.,0.,1.));
#710 = ORIENTED_EDGE('',*,*,#306,.T.);
#711 = ORIENTED_EDGE('',*,*,#712,.F.);
#712 = EDGE_CURVE('',#713,#309,#715,.T.);
#713 = VERTEX_POINT('',#714);
#714 = CARTESIAN_POINT('',(26.,-11.,0.));
#715 = LINE('',#716,#717);
#716 = CARTESIAN_POINT('',(26.,-11.,0.));
#717 = VECTOR('',#718,1.);
#718 = DIRECTION('',(0.,0.,1.));
#719 = ORIENTED_EDGE('',*,*,#720,.F.);
#720 = EDGE_CURVE('',#704,#713,#721,.T.);
#721 = LINE('',#722,#723);
#722 = CARTESIAN_POINT('',(26.,11.,0.));
#723 = VECTOR('',#724,1.);
#724 = DIRECTION('',(0.,-1.,0.));
#725 = PLANE('',#726);
#726 = AXIS2_PLACEMENT_3D('',#727,#728,#729);
#727 = CARTESIAN_POINT('',(26.,11.,0.));
#728 = DIRECTION('',(1.,0.,0.));
#729 = DIRECTION('',(0.,-1.,0.));
#730 = ADVANCED_FACE('',(#731),#749,.T.);
#731 = FACE_BOUND('',#732,.T.);
#732 = EDGE_LOOP('',(#733,#741,#742,#743));
#733 = ORIENTED_EDGE('',*,*,#734,.T.);
#734 = EDGE_CURVE('',#735,#317,#737,.T.);
#735 = VERTEX_POINT('',#736);
#736 = CARTESIAN_POINT('',(29.,11.,0.));
#737 = LINE('',#738,#739);
#738 = CARTESIAN_POINT('',(29.,11.,0.));
#739 = VECTOR('',#740,1.);
#740 = DIRECTION('',(0.,0.,1.));
#741 = ORIENTED_EDGE('',*,*,#316,.T.);
#742 = ORIENTED_EDGE('',*,*,#703,.F.);
#743 = ORIENTED_EDGE('',*,*,#744,.F.);
#744 = EDGE_CURVE('',#735,#704,#745,.T.);
#745 = LINE('',#746,#747);
#746 = CARTESIAN_POINT('',(29.,11.,0.));
#747 = VECTOR('',#748,1.);
#748 = DIRECTION('',(-1.,0.,0.));
#749 = PLANE('',#750);
#750 = AXIS2_PLACEMENT_3D('',#751,#752,#753);
#751 = CARTESIAN_POINT('',(29.,11.,0.));
#752 = DIRECTION('',(0.,-1.,0.));
#753 = DIRECTION('',(-1.,0.,0.));
#754 = ADVANCED_FACE('',(#755),#773,.T.);
#755 = FACE_BOUND('',#756,.T.);
#756 = EDGE_LOOP('',(#757,#758,#759,#767));
#757 = ORIENTED_EDGE('',*,*,#712,.T.);
#758 = ORIENTED_EDGE('',*,*,#332,.T.);
#759 = ORIENTED_EDGE('',*,*,#760,.F.);
#760 = EDGE_CURVE('',#761,#325,#763,.T.);
#761 = VERTEX_POINT('',#762);
#762 = CARTESIAN_POINT('',(29.,-11.,0.));
#763 = LINE('',#764,#765);
#764 = CARTESIAN_POINT('',(29.,-11.,0.));
#765 = VECTOR('',#766,1.);
#766 = DIRECTION('',(0.,0.,1.));
#767 = ORIENTED_EDGE('',*,*,#768,.F.);
#768 = EDGE_CURVE('',#713,#761,#769,.T.);
#769 = LINE('',#770,#771);
#770 = CARTESIAN_POINT('',(26.,-11.,0.));
#771 = VECTOR('',#772,1.);
#772 = DIRECTION('',(1.,0.,0.));
#773 = PLANE('',#774);
#774 = AXIS2_PLACEMENT_3D('',#775,#776,#777);
#775 = CARTESIAN_POINT('',(26.,-11.,0.));
#776 = DIRECTION('',(0.,1.,0.));
#777 = DIRECTION('',(1.,0.,0.));
#778 = ADVANCED_FACE('',(#779),#790,.T.);
#779 = FACE_BOUND('',#780,.T.);
#780 = EDGE_LOOP('',(#781,#782,#783,#784));
#781 = ORIENTED_EDGE('',*,*,#760,.T.);
#782 = ORIENTED_EDGE('',*,*,#324,.T.);
#783 = ORIENTED_EDGE('',*,*,#734,.F.);
#784 = ORIENTED_EDGE('',*,*,#785,.F.);
#785 = EDGE_CURVE('',#761,#735,#786,.T.);
#786 = LINE('',#787,#788);
#787 = CARTESIAN_POINT('',(29.,-11.,0.));
#788 = VECTOR('',#789,1.);
#789 = DIRECTION('',(0.,1.,0.));
#790 = PLANE('',#791);
#791 = AXIS2_PLACEMENT_3D('',#792,#793,#794);
#792 = CARTESIAN_POINT('',(29.,-11.,0.));
#793 = DIRECTION('',(-1.,0.,0.));
#794 = DIRECTION('',(0.,1.,0.));
#795 = ADVANCED_FACE('',(#796,#809),#815,.F.);
#796 = FACE_BOUND('',#797,.F.);
#797 = EDGE_LOOP('',(#798,#799,#805,#806,#807,#808));
#798 = ORIENTED_EDGE('',*,*,#354,.T.);
#799 = ORIENTED_EDGE('',*,*,#800,.F.);
#800 = EDGE_CURVE('',#446,#355,#801,.T.);
#801 = LINE('',#802,#803);
#802 = CARTESIAN_POINT('',(24.,-13.99999999999,0.));
#803 = VECTOR('',#804,1.);
#804 = DIRECTION('',(0.,1.,-2.2E-16));
#805 = ORIENTED_EDGE('',*,*,#453,.T.);
#806 = ORIENTED_EDGE('',*,*,#596,.T.);
#807 = ORIENTED_EDGE('',*,*,#614,.T.);
#808 = ORIENTED_EDGE('',*,*,#571,.T.);
#809 = FACE_BOUND('',#810,.F.);
#810 = EDGE_LOOP('',(#811,#812,#813,#814));
#811 = ORIENTED_EDGE('',*,*,#720,.F.);
#812 = ORIENTED_EDGE('',*,*,#744,.F.);
#813 = ORIENTED_EDGE('',*,*,#785,.F.);
#814 = ORIENTED_EDGE('',*,*,#768,.F.);
#815 = PLANE('',#816);
#816 = AXIS2_PLACEMENT_3D('',#817,#818,#819);
#817 = CARTESIAN_POINT('',(-1.17E-15,-2.E-16,0.));
#818 = DIRECTION('',(0.,0.,1.));
#819 = DIRECTION('',(1.,0.,0.));
#820 = ADVANCED_FACE('',(#821),#832,.F.);
#821 = FACE_BOUND('',#822,.F.);
#822 = EDGE_LOOP('',(#823,#824,#825,#831));
#823 = ORIENTED_EDGE('',*,*,#800,.T.);
#824 = ORIENTED_EDGE('',*,*,#362,.T.);
#825 = ORIENTED_EDGE('',*,*,#826,.F.);
#826 = EDGE_CURVE('',#438,#363,#827,.T.);
#827 = LINE('',#828,#829);
#828 = CARTESIAN_POINT('',(19.000000000001,-13.99999999999,-5.));
#829 = VECTOR('',#830,1.);
#830 = DIRECTION('',(0.,1.,-2.2E-16));
#831 = ORIENTED_EDGE('',*,*,#445,.F.);
#832 = PLANE('',#833);
#833 = AXIS2_PLACEMENT_3D('',#834,#835,#836);
#834 = CARTESIAN_POINT('',(24.,-13.99999999999,2.7E-16));
#835 = DIRECTION('',(-0.707106781187,1.6E-16,0.707106781186));
#836 = DIRECTION('',(-0.707106781186,-1.6E-16,-0.707106781187));
#837 = ADVANCED_FACE('',(#838),#849,.T.);
#838 = FACE_BOUND('',#839,.T.);
#839 = EDGE_LOOP('',(#840,#846,#847,#848));
#840 = ORIENTED_EDGE('',*,*,#841,.T.);
#841 = EDGE_CURVE('',#430,#371,#842,.T.);
#842 = LINE('',#843,#844);
#843 = CARTESIAN_POINT('',(19.000000000001,-13.99999999999,-6.));
#844 = VECTOR('',#845,1.);
#845 = DIRECTION('',(0.,1.,-2.2E-16));
#846 = ORIENTED_EDGE('',*,*,#370,.T.);
#847 = ORIENTED_EDGE('',*,*,#826,.F.);
#848 = ORIENTED_EDGE('',*,*,#437,.F.);
#849 = PLANE('',#850);
#850 = AXIS2_PLACEMENT_3D('',#851,#852,#853);
#851 = CARTESIAN_POINT('',(19.000000000001,-13.99999999999,-6.));
#852 = DIRECTION('',(1.,0.,0.));
#853 = DIRECTION('',(0.,2.2E-16,1.));
#854 = ADVANCED_FACE('',(#855,#866,#877,#975),#986,.T.);
#855 = FACE_BOUND('',#856,.T.);
#856 = EDGE_LOOP('',(#857,#863,#864,#865));
#857 = ORIENTED_EDGE('',*,*,#858,.T.);
#858 = EDGE_CURVE('',#422,#379,#859,.T.);
#859 = LINE('',#860,#861);
#860 = CARTESIAN_POINT('',(-19.,-13.99999999999,-6.));
#861 = VECTOR('',#862,1.);
#862 = DIRECTION('',(0.,1.,-2.2E-16));
#863 = ORIENTED_EDGE('',*,*,#378,.T.);
#864 = ORIENTED_EDGE('',*,*,#841,.F.);
#865 = ORIENTED_EDGE('',*,*,#429,.F.);
#866 = FACE_BOUND('',#867,.T.);
#867 = EDGE_LOOP('',(#868));
#868 = ORIENTED_EDGE('',*,*,#869,.F.);
#869 = EDGE_CURVE('',#870,#870,#872,.T.);
#870 = VERTEX_POINT('',#871);
#871 = CARTESIAN_POINT('',(-13.3,0.,-6.));
#872 = CIRCLE('',#873,1.7);
#873 = AXIS2_PLACEMENT_3D('',#874,#875,#876);
#874 = CARTESIAN_POINT('',(-15.,0.,-6.));
#875 = DIRECTION('',(0.,0.,-1.));
#876 = DIRECTION('',(1.,0.,0.));
#877 = FACE_BOUND('',#878,.T.);
#878 = EDGE_LOOP('',(#879,#889,#897,#905,#913,#921,#929,#937,#945,#953,
    #961,#969));
#879 = ORIENTED_EDGE('',*,*,#880,.F.);
#880 = EDGE_CURVE('',#881,#883,#885,.T.);
#881 = VERTEX_POINT('',#882);
#882 = CARTESIAN_POINT('',(-5.7,-6.2,-6.));
#883 = VERTEX_POINT('',#884);
#884 = CARTESIAN_POINT('',(-5.7,3.9,-6.));
#885 = LINE('',#886,#887);
#886 = CARTESIAN_POINT('',(-5.7,-6.2,-6.));
#887 = VECTOR('',#888,1.);
#888 = DIRECTION('',(0.,1.,0.));
#889 = ORIENTED_EDGE('',*,*,#890,.F.);
#890 = EDGE_CURVE('',#891,#881,#893,.T.);
#891 = VERTEX_POINT('',#892);
#892 = CARTESIAN_POINT('',(5.7,-6.2,-6.));
#893 = LINE('',#894,#895);
#894 = CARTESIAN_POINT('',(5.7,-6.2,-6.));
#895 = VECTOR('',#896,1.);
#896 = DIRECTION('',(-1.,0.,0.));
#897 = ORIENTED_EDGE('',*,*,#898,.T.);
#898 = EDGE_CURVE('',#891,#899,#901,.T.);
#899 = VERTEX_POINT('',#900);
#900 = CARTESIAN_POINT('',(5.7,-2.,-6.));
#901 = LINE('',#902,#903);
#902 = CARTESIAN_POINT('',(5.7,-6.2,-6.));
#903 = VECTOR('',#904,1.);
#904 = DIRECTION('',(0.,1.,0.));
#905 = ORIENTED_EDGE('',*,*,#906,.F.);
#906 = EDGE_CURVE('',#907,#899,#909,.T.);
#907 = VERTEX_POINT('',#908);
#908 = CARTESIAN_POINT('',(9.6,-2.,-6.));
#909 = LINE('',#910,#911);
#910 = CARTESIAN_POINT('',(9.6,-2.,-6.));
#911 = VECTOR('',#912,1.);
#912 = DIRECTION('',(-1.,0.,0.));
#913 = ORIENTED_EDGE('',*,*,#914,.F.);
#914 = EDGE_CURVE('',#915,#907,#917,.T.);
#915 = VERTEX_POINT('',#916);
#916 = CARTESIAN_POINT('',(9.6,2.,-6.));
#917 = LINE('',#918,#919);
#918 = CARTESIAN_POINT('',(9.6,2.,-6.));
#919 = VECTOR('',#920,1.);
#920 = DIRECTION('',(0.,-1.,0.));
#921 = ORIENTED_EDGE('',*,*,#922,.F.);
#922 = EDGE_CURVE('',#923,#915,#925,.T.);
#923 = VERTEX_POINT('',#924);
#924 = CARTESIAN_POINT('',(5.7,2.,-6.));
#925 = LINE('',#926,#927);
#926 = CARTESIAN_POINT('',(5.6,2.,-6.));
#927 = VECTOR('',#928,1.);
#928 = DIRECTION('',(1.,0.,0.));
#929 = ORIENTED_EDGE('',*,*,#930,.T.);
#930 = EDGE_CURVE('',#923,#931,#933,.T.);
#931 = VERTEX_POINT('',#932);
#932 = CARTESIAN_POINT('',(5.7,3.9,-6.));
#933 = LINE('',#934,#935);
#934 = CARTESIAN_POINT('',(5.7,-6.2,-6.));
#935 = VECTOR('',#936,1.);
#936 = DIRECTION('',(0.,1.,0.));
#937 = ORIENTED_EDGE('',*,*,#938,.F.);
#938 = EDGE_CURVE('',#939,#931,#941,.T.);
#939 = VERTEX_POINT('',#940);
#940 = CARTESIAN_POINT('',(10.1,3.9,-6.));
#941 = LINE('',#942,#943);
#942 = CARTESIAN_POINT('',(10.1,3.9,-6.));
#943 = VECTOR('',#944,1.);
#944 = DIRECTION('',(-1.,0.,0.));
#945 = ORIENTED_EDGE('',*,*,#946,.F.);
#946 = EDGE_CURVE('',#947,#939,#949,.T.);
#947 = VERTEX_POINT('',#948);
#948 = CARTESIAN_POINT('',(10.1,9.1,-6.));
#949 = LINE('',#950,#951);
#950 = CARTESIAN_POINT('',(10.1,9.1,-6.));
#951 = VECTOR('',#952,1.);
#952 = DIRECTION('',(0.,-1.,0.));
#953 = ORIENTED_EDGE('',*,*,#954,.F.);
#954 = EDGE_CURVE('',#955,#947,#957,.T.);
#955 = VERTEX_POINT('',#956);
#956 = CARTESIAN_POINT('',(-10.1,9.1,-6.));
#957 = LINE('',#958,#959);
#958 = CARTESIAN_POINT('',(-10.1,9.1,-6.));
#959 = VECTOR('',#960,1.);
#960 = DIRECTION('',(1.,0.,0.));
#961 = ORIENTED_EDGE('',*,*,#962,.F.);
#962 = EDGE_CURVE('',#963,#955,#965,.T.);
#963 = VERTEX_POINT('',#964);
#964 = CARTESIAN_POINT('',(-10.1,3.9,-6.));
#965 = LINE('',#966,#967);
#966 = CARTESIAN_POINT('',(-10.1,3.9,-6.));
#967 = VECTOR('',#968,1.);
#968 = DIRECTION('',(0.,1.,0.));
#969 = ORIENTED_EDGE('',*,*,#970,.F.);
#970 = EDGE_CURVE('',#883,#963,#971,.T.);
#971 = LINE('',#972,#973);
#972 = CARTESIAN_POINT('',(-5.7,3.9,-6.));
#973 = VECTOR('',#974,1.);
#974 = DIRECTION('',(-1.,0.,0.));
#975 = FACE_BOUND('',#976,.T.);
#976 = EDGE_LOOP('',(#977));
#977 = ORIENTED_EDGE('',*,*,#978,.F.);
#978 = EDGE_CURVE('',#979,#979,#981,.T.);
#979 = VERTEX_POINT('',#980);
#980 = CARTESIAN_POINT('',(16.7,0.,-6.));
#981 = CIRCLE('',#982,1.7);
#982 = AXIS2_PLACEMENT_3D('',#983,#984,#985);
#983 = CARTESIAN_POINT('',(15.,0.,-6.));
#984 = DIRECTION('',(0.,0.,-1.));
#985 = DIRECTION('',(1.,0.,0.));
#986 = PLANE('',#987);
#987 = AXIS2_PLACEMENT_3D('',#988,#989,#990);
#988 = CARTESIAN_POINT('',(-19.,-13.99999999999,-6.));
#989 = DIRECTION('',(0.,-2.2E-16,-1.));
#990 = DIRECTION('',(1.,0.,0.));
#991 = ADVANCED_FACE('',(#992),#998,.T.);
#992 = FACE_BOUND('',#993,.T.);
#993 = EDGE_LOOP('',(#994,#995,#996,#997));
#994 = ORIENTED_EDGE('',*,*,#476,.T.);
#995 = ORIENTED_EDGE('',*,*,#386,.T.);
#996 = ORIENTED_EDGE('',*,*,#858,.F.);
#997 = ORIENTED_EDGE('',*,*,#421,.F.);
#998 = PLANE('',#999);
#999 = AXIS2_PLACEMENT_3D('',#1000,#1001,#1002);
#1000 = CARTESIAN_POINT('',(-19.,-13.99999999999,-5.));
#1001 = DIRECTION('',(-1.,0.,0.));
#1002 = DIRECTION('',(-0.,-2.2E-16,-1.));
#1003 = ADVANCED_FACE('',(#1004),#1015,.F.);
#1004 = FACE_BOUND('',#1005,.T.);
#1005 = EDGE_LOOP('',(#1006,#1012,#1013,#1014));
#1006 = ORIENTED_EDGE('',*,*,#1007,.F.);
#1007 = EDGE_CURVE('',#629,#870,#1008,.T.);
#1008 = LINE('',#1009,#1010);
#1009 = CARTESIAN_POINT('',(-13.3,0.,1.05));
#1010 = VECTOR('',#1011,1.);
#1011 = DIRECTION('',(-6.E-17,0.,-1.));
#1012 = ORIENTED_EDGE('',*,*,#638,.T.);
#1013 = ORIENTED_EDGE('',*,*,#1007,.T.);
#1014 = ORIENTED_EDGE('',*,*,#869,.T.);
#1015 = CYLINDRICAL_SURFACE('',#1016,1.7);
#1016 = AXIS2_PLACEMENT_3D('',#1017,#1018,#1019);
#1017 = CARTESIAN_POINT('',(-15.,0.,1.05));
#1018 = DIRECTION('',(-0.,-0.,-1.));
#1019 = DIRECTION('',(1.,0.,0.));
#1020 = ADVANCED_FACE('',(#1021),#1040,.F.);
#1021 = FACE_BOUND('',#1022,.F.);
#1022 = EDGE_LOOP('',(#1023,#1031,#1032,#1033));
#1023 = ORIENTED_EDGE('',*,*,#1024,.F.);
#1024 = EDGE_CURVE('',#654,#1025,#1027,.T.);
#1025 = VERTEX_POINT('',#1026);
#1026 = CARTESIAN_POINT('',(3.700000000145,1.E-15,0.1));
#1027 = LINE('',#1028,#1029);
#1028 = CARTESIAN_POINT('',(1.,4.E-17,2.8));
#1029 = VECTOR('',#1030,1.);
#1030 = DIRECTION('',(0.707106781205,1.6E-16,-0.707106781168));
#1031 = ORIENTED_EDGE('',*,*,#663,.T.);
#1032 = ORIENTED_EDGE('',*,*,#1024,.T.);
#1033 = ORIENTED_EDGE('',*,*,#1034,.F.);
#1034 = EDGE_CURVE('',#1025,#1025,#1035,.T.);
#1035 = CIRCLE('',#1036,3.700000000145);
#1036 = AXIS2_PLACEMENT_3D('',#1037,#1038,#1039);
#1037 = CARTESIAN_POINT('',(0.,-6.3E-16,1.E-01));
#1038 = DIRECTION('',(0.,-2.2E-16,-1.));
#1039 = DIRECTION('',(1.,0.,0.));
#1040 = CONICAL_SURFACE('',#1041,1.,0.785398163424);
#1041 = AXIS2_PLACEMENT_3D('',#1042,#1043,#1044);
#1042 = CARTESIAN_POINT('',(0.,-4.E-17,2.8));
#1043 = DIRECTION('',(0.,-2.2E-16,-1.));
#1044 = DIRECTION('',(1.,0.,0.));
#1045 = ADVANCED_FACE('',(#1046),#1057,.F.);
#1046 = FACE_BOUND('',#1047,.T.);
#1047 = EDGE_LOOP('',(#1048,#1054,#1055,#1056));
#1048 = ORIENTED_EDGE('',*,*,#1049,.F.);
#1049 = EDGE_CURVE('',#679,#979,#1050,.T.);
#1050 = LINE('',#1051,#1052);
#1051 = CARTESIAN_POINT('',(16.7,0.,1.05));
#1052 = VECTOR('',#1053,1.);
#1053 = DIRECTION('',(-6.E-17,0.,-1.));
#1054 = ORIENTED_EDGE('',*,*,#688,.T.);
#1055 = ORIENTED_EDGE('',*,*,#1049,.T.);
#1056 = ORIENTED_EDGE('',*,*,#978,.T.);
#1057 = CYLINDRICAL_SURFACE('',#1058,1.7);
#1058 = AXIS2_PLACEMENT_3D('',#1059,#1060,#1061);
#1059 = CARTESIAN_POINT('',(15.,0.,1.05));
#1060 = DIRECTION('',(-0.,-0.,-1.));
#1061 = DIRECTION('',(1.,0.,0.));
#1062 = ADVANCED_FACE('',(#1063),#1088,.F.);
#1063 = FACE_BOUND('',#1064,.F.);
#1064 = EDGE_LOOP('',(#1065,#1073,#1081,#1087));
#1065 = ORIENTED_EDGE('',*,*,#1066,.T.);
#1066 = EDGE_CURVE('',#881,#1067,#1069,.T.);
#1067 = VERTEX_POINT('',#1068);
#1068 = CARTESIAN_POINT('',(-5.7,-6.2,1.E-01));
#1069 = LINE('',#1070,#1071);
#1070 = CARTESIAN_POINT('',(-5.7,-6.2,-6.));
#1071 = VECTOR('',#1072,1.);
#1072 = DIRECTION('',(0.,0.,1.));
#1073 = ORIENTED_EDGE('',*,*,#1074,.T.);
#1074 = EDGE_CURVE('',#1067,#1075,#1077,.T.);
#1075 = VERTEX_POINT('',#1076);
#1076 = CARTESIAN_POINT('',(-5.7,3.9,1.E-01));
#1077 = LINE('',#1078,#1079);
#1078 = CARTESIAN_POINT('',(-5.7,-6.2,1.E-01));
#1079 = VECTOR('',#1080,1.);
#1080 = DIRECTION('',(0.,1.,0.));
#1081 = ORIENTED_EDGE('',*,*,#1082,.F.);
#1082 = EDGE_CURVE('',#883,#1075,#1083,.T.);
#1083 = LINE('',#1084,#1085);
#1084 = CARTESIAN_POINT('',(-5.7,3.9,-6.));
#1085 = VECTOR('',#1086,1.);
#1086 = DIRECTION('',(0.,0.,1.));
#1087 = ORIENTED_EDGE('',*,*,#880,.F.);
#1088 = PLANE('',#1089);
#1089 = AXIS2_PLACEMENT_3D('',#1090,#1091,#1092);
#1090 = CARTESIAN_POINT('',(-5.7,-6.2,-6.));
#1091 = DIRECTION('',(-1.,0.,0.));
#1092 = DIRECTION('',(0.,1.,0.));
#1093 = ADVANCED_FACE('',(#1094),#1112,.F.);
#1094 = FACE_BOUND('',#1095,.F.);
#1095 = EDGE_LOOP('',(#1096,#1097,#1105,#1111));
#1096 = ORIENTED_EDGE('',*,*,#1082,.T.);
#1097 = ORIENTED_EDGE('',*,*,#1098,.T.);
#1098 = EDGE_CURVE('',#1075,#1099,#1101,.T.);
#1099 = VERTEX_POINT('',#1100);
#1100 = CARTESIAN_POINT('',(-10.1,3.9,1.E-01));
#1101 = LINE('',#1102,#1103);
#1102 = CARTESIAN_POINT('',(-5.7,3.9,1.E-01));
#1103 = VECTOR('',#1104,1.);
#1104 = DIRECTION('',(-1.,0.,0.));
#1105 = ORIENTED_EDGE('',*,*,#1106,.F.);
#1106 = EDGE_CURVE('',#963,#1099,#1107,.T.);
#1107 = LINE('',#1108,#1109);
#1108 = CARTESIAN_POINT('',(-10.1,3.9,-6.));
#1109 = VECTOR('',#1110,1.);
#1110 = DIRECTION('',(0.,0.,1.));
#1111 = ORIENTED_EDGE('',*,*,#970,.F.);
#1112 = PLANE('',#1113);
#1113 = AXIS2_PLACEMENT_3D('',#1114,#1115,#1116);
#1114 = CARTESIAN_POINT('',(-5.7,3.9,-6.));
#1115 = DIRECTION('',(0.,-1.,0.));
#1116 = DIRECTION('',(-1.,0.,0.));
#1117 = ADVANCED_FACE('',(#1118),#1136,.F.);
#1118 = FACE_BOUND('',#1119,.F.);
#1119 = EDGE_LOOP('',(#1120,#1121,#1129,#1135));
#1120 = ORIENTED_EDGE('',*,*,#1106,.T.);
#1121 = ORIENTED_EDGE('',*,*,#1122,.T.);
#1122 = EDGE_CURVE('',#1099,#1123,#1125,.T.);
#1123 = VERTEX_POINT('',#1124);
#1124 = CARTESIAN_POINT('',(-10.1,9.1,1.E-01));
#1125 = LINE('',#1126,#1127);
#1126 = CARTESIAN_POINT('',(-10.1,3.9,1.E-01));
#1127 = VECTOR('',#1128,1.);
#1128 = DIRECTION('',(0.,1.,0.));
#1129 = ORIENTED_EDGE('',*,*,#1130,.F.);
#1130 = EDGE_CURVE('',#955,#1123,#1131,.T.);
#1131 = LINE('',#1132,#1133);
#1132 = CARTESIAN_POINT('',(-10.1,9.1,-6.));
#1133 = VECTOR('',#1134,1.);
#1134 = DIRECTION('',(0.,0.,1.));
#1135 = ORIENTED_EDGE('',*,*,#962,.F.);
#1136 = PLANE('',#1137);
#1137 = AXIS2_PLACEMENT_3D('',#1138,#1139,#1140);
#1138 = CARTESIAN_POINT('',(-10.1,3.9,-6.));
#1139 = DIRECTION('',(-1.,0.,0.));
#1140 = DIRECTION('',(0.,1.,0.));
#1141 = ADVANCED_FACE('',(#1142),#1160,.F.);
#1142 = FACE_BOUND('',#1143,.F.);
#1143 = EDGE_LOOP('',(#1144,#1145,#1153,#1159));
#1144 = ORIENTED_EDGE('',*,*,#1130,.T.);
#1145 = ORIENTED_EDGE('',*,*,#1146,.T.);
#1146 = EDGE_CURVE('',#1123,#1147,#1149,.T.);
#1147 = VERTEX_POINT('',#1148);
#1148 = CARTESIAN_POINT('',(10.1,9.1,1.E-01));
#1149 = LINE('',#1150,#1151);
#1150 = CARTESIAN_POINT('',(-10.1,9.1,1.E-01));
#1151 = VECTOR('',#1152,1.);
#1152 = DIRECTION('',(1.,0.,0.));
#1153 = ORIENTED_EDGE('',*,*,#1154,.F.);
#1154 = EDGE_CURVE('',#947,#1147,#1155,.T.);
#1155 = LINE('',#1156,#1157);
#1156 = CARTESIAN_POINT('',(10.1,9.1,-6.));
#1157 = VECTOR('',#1158,1.);
#1158 = DIRECTION('',(0.,0.,1.));
#1159 = ORIENTED_EDGE('',*,*,#954,.F.);
#1160 = PLANE('',#1161);
#1161 = AXIS2_PLACEMENT_3D('',#1162,#1163,#1164);
#1162 = CARTESIAN_POINT('',(-10.1,9.1,-6.));
#1163 = DIRECTION('',(0.,1.,0.));
#1164 = DIRECTION('',(1.,0.,0.));
#1165 = ADVANCED_FACE('',(#1166),#1184,.F.);
#1166 = FACE_BOUND('',#1167,.F.);
#1167 = EDGE_LOOP('',(#1168,#1169,#1177,#1183));
#1168 = ORIENTED_EDGE('',*,*,#1154,.T.);
#1169 = ORIENTED_EDGE('',*,*,#1170,.T.);
#1170 = EDGE_CURVE('',#1147,#1171,#1173,.T.);
#1171 = VERTEX_POINT('',#1172);
#1172 = CARTESIAN_POINT('',(10.1,3.9,1.E-01));
#1173 = LINE('',#1174,#1175);
#1174 = CARTESIAN_POINT('',(10.1,9.1,1.E-01));
#1175 = VECTOR('',#1176,1.);
#1176 = DIRECTION('',(0.,-1.,0.));
#1177 = ORIENTED_EDGE('',*,*,#1178,.F.);
#1178 = EDGE_CURVE('',#939,#1171,#1179,.T.);
#1179 = LINE('',#1180,#1181);
#1180 = CARTESIAN_POINT('',(10.1,3.9,-6.));
#1181 = VECTOR('',#1182,1.);
#1182 = DIRECTION('',(0.,0.,1.));
#1183 = ORIENTED_EDGE('',*,*,#946,.F.);
#1184 = PLANE('',#1185);
#1185 = AXIS2_PLACEMENT_3D('',#1186,#1187,#1188);
#1186 = CARTESIAN_POINT('',(10.1,9.1,-6.));
#1187 = DIRECTION('',(1.,0.,0.));
#1188 = DIRECTION('',(0.,-1.,0.));
#1189 = ADVANCED_FACE('',(#1190),#1208,.F.);
#1190 = FACE_BOUND('',#1191,.F.);
#1191 = EDGE_LOOP('',(#1192,#1193,#1201,#1207));
#1192 = ORIENTED_EDGE('',*,*,#1178,.T.);
#1193 = ORIENTED_EDGE('',*,*,#1194,.T.);
#1194 = EDGE_CURVE('',#1171,#1195,#1197,.T.);
#1195 = VERTEX_POINT('',#1196);
#1196 = CARTESIAN_POINT('',(5.7,3.9,1.E-01));
#1197 = LINE('',#1198,#1199);
#1198 = CARTESIAN_POINT('',(10.1,3.9,1.E-01));
#1199 = VECTOR('',#1200,1.);
#1200 = DIRECTION('',(-1.,0.,0.));
#1201 = ORIENTED_EDGE('',*,*,#1202,.F.);
#1202 = EDGE_CURVE('',#931,#1195,#1203,.T.);
#1203 = LINE('',#1204,#1205);
#1204 = CARTESIAN_POINT('',(5.7,3.9,-6.));
#1205 = VECTOR('',#1206,1.);
#1206 = DIRECTION('',(0.,0.,1.));
#1207 = ORIENTED_EDGE('',*,*,#938,.F.);
#1208 = PLANE('',#1209);
#1209 = AXIS2_PLACEMENT_3D('',#1210,#1211,#1212);
#1210 = CARTESIAN_POINT('',(10.1,3.9,-6.));
#1211 = DIRECTION('',(0.,-1.,0.));
#1212 = DIRECTION('',(-1.,0.,0.));
#1213 = ADVANCED_FACE('',(#1214),#1255,.T.);
#1214 = FACE_BOUND('',#1215,.T.);
#1215 = EDGE_LOOP('',(#1216,#1217,#1225,#1231,#1232,#1233,#1241,#1249));
#1216 = ORIENTED_EDGE('',*,*,#898,.F.);
#1217 = ORIENTED_EDGE('',*,*,#1218,.T.);
#1218 = EDGE_CURVE('',#891,#1219,#1221,.T.);
#1219 = VERTEX_POINT('',#1220);
#1220 = CARTESIAN_POINT('',(5.7,-6.2,1.E-01));
#1221 = LINE('',#1222,#1223);
#1222 = CARTESIAN_POINT('',(5.7,-6.2,-6.));
#1223 = VECTOR('',#1224,1.);
#1224 = DIRECTION('',(0.,0.,1.));
#1225 = ORIENTED_EDGE('',*,*,#1226,.T.);
#1226 = EDGE_CURVE('',#1219,#1195,#1227,.T.);
#1227 = LINE('',#1228,#1229);
#1228 = CARTESIAN_POINT('',(5.7,-6.2,1.E-01));
#1229 = VECTOR('',#1230,1.);
#1230 = DIRECTION('',(0.,1.,0.));
#1231 = ORIENTED_EDGE('',*,*,#1202,.F.);
#1232 = ORIENTED_EDGE('',*,*,#930,.F.);
#1233 = ORIENTED_EDGE('',*,*,#1234,.F.);
#1234 = EDGE_CURVE('',#1235,#923,#1237,.T.);
#1235 = VERTEX_POINT('',#1236);
#1236 = CARTESIAN_POINT('',(5.7,2.,-4.));
#1237 = LINE('',#1238,#1239);
#1238 = CARTESIAN_POINT('',(5.7,2.,-6.));
#1239 = VECTOR('',#1240,1.);
#1240 = DIRECTION('',(0.,0.,-1.));
#1241 = ORIENTED_EDGE('',*,*,#1242,.F.);
#1242 = EDGE_CURVE('',#1243,#1235,#1245,.T.);
#1243 = VERTEX_POINT('',#1244);
#1244 = CARTESIAN_POINT('',(5.7,-2.,-4.));
#1245 = LINE('',#1246,#1247);
#1246 = CARTESIAN_POINT('',(5.7,-3.1,-4.));
#1247 = VECTOR('',#1248,1.);
#1248 = DIRECTION('',(0.,1.,0.));
#1249 = ORIENTED_EDGE('',*,*,#1250,.F.);
#1250 = EDGE_CURVE('',#899,#1243,#1251,.T.);
#1251 = LINE('',#1252,#1253);
#1252 = CARTESIAN_POINT('',(5.7,-2.,-6.));
#1253 = VECTOR('',#1254,1.);
#1254 = DIRECTION('',(0.,0.,1.));
#1255 = PLANE('',#1256);
#1256 = AXIS2_PLACEMENT_3D('',#1257,#1258,#1259);
#1257 = CARTESIAN_POINT('',(5.7,-6.2,-6.));
#1258 = DIRECTION('',(-1.,0.,0.));
#1259 = DIRECTION('',(0.,1.,0.));
#1260 = ADVANCED_FACE('',(#1261),#1279,.F.);
#1261 = FACE_BOUND('',#1262,.F.);
#1262 = EDGE_LOOP('',(#1263,#1264,#1265,#1273));
#1263 = ORIENTED_EDGE('',*,*,#922,.F.);
#1264 = ORIENTED_EDGE('',*,*,#1234,.F.);
#1265 = ORIENTED_EDGE('',*,*,#1266,.T.);
#1266 = EDGE_CURVE('',#1235,#1267,#1269,.T.);
#1267 = VERTEX_POINT('',#1268);
#1268 = CARTESIAN_POINT('',(9.6,2.,-4.));
#1269 = LINE('',#1270,#1271);
#1270 = CARTESIAN_POINT('',(5.6,2.,-4.));
#1271 = VECTOR('',#1272,1.);
#1272 = DIRECTION('',(1.,0.,0.));
#1273 = ORIENTED_EDGE('',*,*,#1274,.F.);
#1274 = EDGE_CURVE('',#915,#1267,#1275,.T.);
#1275 = LINE('',#1276,#1277);
#1276 = CARTESIAN_POINT('',(9.6,2.,-6.));
#1277 = VECTOR('',#1278,1.);
#1278 = DIRECTION('',(0.,0.,1.));
#1279 = PLANE('',#1280);
#1280 = AXIS2_PLACEMENT_3D('',#1281,#1282,#1283);
#1281 = CARTESIAN_POINT('',(5.6,2.,-6.));
#1282 = DIRECTION('',(0.,1.,0.));
#1283 = DIRECTION('',(1.,0.,0.));
#1284 = ADVANCED_FACE('',(#1285),#1303,.F.);
#1285 = FACE_BOUND('',#1286,.F.);
#1286 = EDGE_LOOP('',(#1287,#1288,#1296,#1302));
#1287 = ORIENTED_EDGE('',*,*,#1274,.T.);
#1288 = ORIENTED_EDGE('',*,*,#1289,.T.);
#1289 = EDGE_CURVE('',#1267,#1290,#1292,.T.);
#1290 = VERTEX_POINT('',#1291);
#1291 = CARTESIAN_POINT('',(9.6,-2.,-4.));
#1292 = LINE('',#1293,#1294);
#1293 = CARTESIAN_POINT('',(9.6,2.,-4.));
#1294 = VECTOR('',#1295,1.);
#1295 = DIRECTION('',(0.,-1.,0.));
#1296 = ORIENTED_EDGE('',*,*,#1297,.F.);
#1297 = EDGE_CURVE('',#907,#1290,#1298,.T.);
#1298 = LINE('',#1299,#1300);
#1299 = CARTESIAN_POINT('',(9.6,-2.,-6.));
#1300 = VECTOR('',#1301,1.);
#1301 = DIRECTION('',(0.,0.,1.));
#1302 = ORIENTED_EDGE('',*,*,#914,.F.);
#1303 = PLANE('',#1304);
#1304 = AXIS2_PLACEMENT_3D('',#1305,#1306,#1307);
#1305 = CARTESIAN_POINT('',(9.6,2.,-6.));
#1306 = DIRECTION('',(1.,0.,0.));
#1307 = DIRECTION('',(0.,-1.,0.));
#1308 = ADVANCED_FACE('',(#1309),#1320,.F.);
#1309 = FACE_BOUND('',#1310,.F.);
#1310 = EDGE_LOOP('',(#1311,#1312,#1313,#1319));
#1311 = ORIENTED_EDGE('',*,*,#906,.F.);
#1312 = ORIENTED_EDGE('',*,*,#1297,.T.);
#1313 = ORIENTED_EDGE('',*,*,#1314,.T.);
#1314 = EDGE_CURVE('',#1290,#1243,#1315,.T.);
#1315 = LINE('',#1316,#1317);
#1316 = CARTESIAN_POINT('',(9.6,-2.,-4.));
#1317 = VECTOR('',#1318,1.);
#1318 = DIRECTION('',(-1.,0.,0.));
#1319 = ORIENTED_EDGE('',*,*,#1250,.F.);
#1320 = PLANE('',#1321);
#1321 = AXIS2_PLACEMENT_3D('',#1322,#1323,#1324);
#1322 = CARTESIAN_POINT('',(9.6,-2.,-6.));
#1323 = DIRECTION('',(0.,-1.,0.));
#1324 = DIRECTION('',(-1.,0.,0.));
#1325 = ADVANCED_FACE('',(#1326),#1337,.F.);
#1326 = FACE_BOUND('',#1327,.F.);
#1327 = EDGE_LOOP('',(#1328,#1329,#1335,#1336));
#1328 = ORIENTED_EDGE('',*,*,#1218,.T.);
#1329 = ORIENTED_EDGE('',*,*,#1330,.T.);
#1330 = EDGE_CURVE('',#1219,#1067,#1331,.T.);
#1331 = LINE('',#1332,#1333);
#1332 = CARTESIAN_POINT('',(5.7,-6.2,1.E-01));
#1333 = VECTOR('',#1334,1.);
#1334 = DIRECTION('',(-1.,0.,0.));
#1335 = ORIENTED_EDGE('',*,*,#1066,.F.);
#1336 = ORIENTED_EDGE('',*,*,#890,.F.);
#1337 = PLANE('',#1338);
#1338 = AXIS2_PLACEMENT_3D('',#1339,#1340,#1341);
#1339 = CARTESIAN_POINT('',(5.7,-6.2,-6.));
#1340 = DIRECTION('',(0.,-1.,0.));
#1341 = DIRECTION('',(-1.,0.,0.));
#1342 = ADVANCED_FACE('',(#1343,#1353),#1356,.F.);
#1343 = FACE_BOUND('',#1344,.F.);
#1344 = EDGE_LOOP('',(#1345,#1346,#1347,#1348,#1349,#1350,#1351,#1352));
#1345 = ORIENTED_EDGE('',*,*,#1074,.F.);
#1346 = ORIENTED_EDGE('',*,*,#1330,.F.);
#1347 = ORIENTED_EDGE('',*,*,#1226,.T.);
#1348 = ORIENTED_EDGE('',*,*,#1194,.F.);
#1349 = ORIENTED_EDGE('',*,*,#1170,.F.);
#1350 = ORIENTED_EDGE('',*,*,#1146,.F.);
#1351 = ORIENTED_EDGE('',*,*,#1122,.F.);
#1352 = ORIENTED_EDGE('',*,*,#1098,.F.);
#1353 = FACE_BOUND('',#1354,.F.);
#1354 = EDGE_LOOP('',(#1355));
#1355 = ORIENTED_EDGE('',*,*,#1034,.T.);
#1356 = PLANE('',#1357);
#1357 = AXIS2_PLACEMENT_3D('',#1358,#1359,#1360);
#1358 = CARTESIAN_POINT('',(-1.E-16,2.701830985915,1.E-01));
#1359 = DIRECTION('',(0.,0.,1.));
#1360 = DIRECTION('',(1.,0.,0.));
#1361 = ADVANCED_FACE('',(#1362),#1368,.F.);
#1362 = FACE_BOUND('',#1363,.F.);
#1363 = EDGE_LOOP('',(#1364,#1365,#1366,#1367));
#1364 = ORIENTED_EDGE('',*,*,#1242,.F.);
#1365 = ORIENTED_EDGE('',*,*,#1314,.F.);
#1366 = ORIENTED_EDGE('',*,*,#1289,.F.);
#1367 = ORIENTED_EDGE('',*,*,#1266,.F.);
#1368 = PLANE('',#1369);
#1369 = AXIS2_PLACEMENT_3D('',#1370,#1371,#1372);
#1370 = CARTESIAN_POINT('',(7.6,-1.39E-15,-4.));
#1371 = DIRECTION('',(0.,0.,1.));
#1372 = DIRECTION('',(1.,0.,0.));
#1373 = ( GEOMETRIC_REPRESENTATION_CONTEXT(3) 
GLOBAL_UNCERTAINTY_ASSIGNED_CONTEXT((#1377)) 
GLOBAL_UNIT_ASSIGNED_CONTEXT((#1374,#1375,#1376)) REPRESENTATION_CONTEXT
('Context #1','3D Context with UNIT and UNCERTAINTY') );
#1374 = ( LENGTH_UNIT() NAMED_UNIT(*) SI_UNIT(.MILLI.,.METRE.) );
#1375 = ( NAMED_UNIT(*) PLANE_ANGLE_UNIT() SI_UNIT($,.RADIAN.) );
#1376 = ( NAMED_UNIT(*) SI_UNIT($,.STERADIAN.) SOLID_ANGLE_UNIT() );
#1377 = UNCERTAINTY_MEASURE_WITH_UNIT(LENGTH_MEASURE(2.E-06),#1374,
  'distance_accuracy_value','confusion accuracy');
#1378 = PRODUCT_RELATED_PRODUCT_CATEGORY('part',$,(#7));
#1379 = MECHANICAL_DESIGN_GEOMETRIC_PRESENTATION_REPRESENTATION('',(
    #1380),#1373);
#1380 = STYLED_ITEM('color',(#1381),#15);
#1381 = PRESENTATION_STYLE_ASSIGNMENT((#1382,#1390));
#1382 = SURFACE_STYLE_USAGE(.BOTH.,#1383);
#1383 = SURFACE_SIDE_STYLE('',(#1384,#1388));
#1384 = SURFACE_STYLE_FILL_AREA(#1385);
#1385 = FILL_AREA_STYLE('',(#1386));
#1386 = FILL_AREA_STYLE_COLOUR('',#1387);
#1387 = COLOUR_RGB('',0.678431390124,0.709803936702,0.741176476869);
#1388 = SURFACE_STYLE_RENDERING_WITH_PROPERTIES(.NORMAL_SHADING.,#1387,(
    #1389));
#1389 = SURFACE_STYLE_TRANSPARENT(0.800000011921);
#1390 = CURVE_STYLE('',#1391,POSITIVE_LENGTH_MEASURE(0.1),#1392);
#1391 = DRAUGHTING_PRE_DEFINED_CURVE_FONT('continuous');
#1392 = COLOUR_RGB('',9.803921802644E-02,9.803921802644E-02,
  9.803921802644E-02);
ENDSEC;
END-ISO-10303-21;
