ISO-10303-21;
HEADER;
FILE_DESCRIPTION(('FreeCAD Model'),'2;1');
FILE_NAME('Open CASCADE Shape Model','2026-08-11T06:50:48',('Author'),(
    ''),'Open CASCADE STEP processor 7.8','FreeCAD','Unknown');
FILE_SCHEMA(('AUTOMOTIVE_DESIGN { 1 0 10303 214 1 1 1 1 }'));
ENDSEC;
DATA;
#1 = APPLICATION_PROTOCOL_DEFINITION('international standard',
  'automotive_design',2000,#2);
#2 = APPLICATION_CONTEXT(
  'core data for automotive mechanical design processes');
#3 = SHAPE_DEFINITION_REPRESENTATION(#4,#10);
#4 = PRODUCT_DEFINITION_SHAPE('','',#5);
#5 = PRODUCT_DEFINITION('design','',#6,#9);
#6 = PRODUCT_DEFINITION_FORMATION('','',#7);
#7 = PRODUCT('LidBaloon','LidBaloon','',(#8));
#8 = PRODUCT_CONTEXT('',#2,'mechanical');
#9 = PRODUCT_DEFINITION_CONTEXT('part definition',#2,'design');
#10 = ADVANCED_BREP_SHAPE_REPRESENTATION('',(#11,#15),#663);
#11 = AXIS2_PLACEMENT_3D('',#12,#13,#14);
#12 = CARTESIAN_POINT('',(0.,0.,0.));
#13 = DIRECTION('',(0.,0.,1.));
#14 = DIRECTION('',(1.,0.,-0.));
#15 = MANIFOLD_SOLID_BREP('',#16);
#16 = CLOSED_SHELL('',(#17,#57,#88,#119,#168,#217,#326,#413,#430,#447,
    #459,#484,#506,#523,#540,#557,#574,#591,#608,#620,#645,#654));
#17 = ADVANCED_FACE('',(#18),#52,.F.);
#18 = FACE_BOUND('',#19,.F.);
#19 = EDGE_LOOP('',(#20,#30,#38,#46));
#20 = ORIENTED_EDGE('',*,*,#21,.T.);
#21 = EDGE_CURVE('',#22,#24,#26,.T.);
#22 = VERTEX_POINT('',#23);
#23 = CARTESIAN_POINT('',(-21.9,0.,0.));
#24 = VERTEX_POINT('',#25);
#25 = CARTESIAN_POINT('',(-21.9,0.,42.9));
#26 = LINE('',#27,#28);
#27 = CARTESIAN_POINT('',(-21.9,0.,0.));
#28 = VECTOR('',#29,1.);
#29 = DIRECTION('',(0.,0.,1.));
#30 = ORIENTED_EDGE('',*,*,#31,.T.);
#31 = EDGE_CURVE('',#24,#32,#34,.T.);
#32 = VERTEX_POINT('',#33);
#33 = CARTESIAN_POINT('',(-24.9,0.,42.9));
#34 = LINE('',#35,#36);
#35 = CARTESIAN_POINT('',(-21.9,0.,42.9));
#36 = VECTOR('',#37,1.);
#37 = DIRECTION('',(-1.,0.,0.));
#38 = ORIENTED_EDGE('',*,*,#39,.F.);
#39 = EDGE_CURVE('',#40,#32,#42,.T.);
#40 = VERTEX_POINT('',#41);
#41 = CARTESIAN_POINT('',(-24.9,0.,0.));
#42 = LINE('',#43,#44);
#43 = CARTESIAN_POINT('',(-24.9,0.,0.));
#44 = VECTOR('',#45,1.);
#45 = DIRECTION('',(0.,0.,1.));
#46 = ORIENTED_EDGE('',*,*,#47,.F.);
#47 = EDGE_CURVE('',#22,#40,#48,.T.);
#48 = LINE('',#49,#50);
#49 = CARTESIAN_POINT('',(-21.9,0.,0.));
#50 = VECTOR('',#51,1.);
#51 = DIRECTION('',(-1.,0.,0.));
#52 = PLANE('',#53);
#53 = AXIS2_PLACEMENT_3D('',#54,#55,#56);
#54 = CARTESIAN_POINT('',(-21.9,0.,0.));
#55 = DIRECTION('',(0.,-1.,0.));
#56 = DIRECTION('',(-1.,0.,0.));
#57 = ADVANCED_FACE('',(#58),#83,.T.);
#58 = FACE_BOUND('',#59,.T.);
#59 = EDGE_LOOP('',(#60,#61,#69,#77));
#60 = ORIENTED_EDGE('',*,*,#21,.T.);
#61 = ORIENTED_EDGE('',*,*,#62,.T.);
#62 = EDGE_CURVE('',#24,#63,#65,.T.);
#63 = VERTEX_POINT('',#64);
#64 = CARTESIAN_POINT('',(-25.9,4.,42.9));
#65 = LINE('',#66,#67);
#66 = CARTESIAN_POINT('',(-21.9,0.,42.9));
#67 = VECTOR('',#68,1.);
#68 = DIRECTION('',(-0.707106781187,0.707106781187,0.));
#69 = ORIENTED_EDGE('',*,*,#70,.F.);
#70 = EDGE_CURVE('',#71,#63,#73,.T.);
#71 = VERTEX_POINT('',#72);
#72 = CARTESIAN_POINT('',(-25.9,4.,0.));
#73 = LINE('',#74,#75);
#74 = CARTESIAN_POINT('',(-25.9,4.,0.));
#75 = VECTOR('',#76,1.);
#76 = DIRECTION('',(0.,0.,1.));
#77 = ORIENTED_EDGE('',*,*,#78,.F.);
#78 = EDGE_CURVE('',#22,#71,#79,.T.);
#79 = LINE('',#80,#81);
#80 = CARTESIAN_POINT('',(-21.9,0.,0.));
#81 = VECTOR('',#82,1.);
#82 = DIRECTION('',(-0.707106781187,0.707106781187,0.));
#83 = PLANE('',#84);
#84 = AXIS2_PLACEMENT_3D('',#85,#86,#87);
#85 = CARTESIAN_POINT('',(-21.9,0.,0.));
#86 = DIRECTION('',(-0.707106781187,-0.707106781187,0.));
#87 = DIRECTION('',(-0.707106781187,0.707106781187,0.));
#88 = ADVANCED_FACE('',(#89),#114,.F.);
#89 = FACE_BOUND('',#90,.F.);
#90 = EDGE_LOOP('',(#91,#92,#100,#108));
#91 = ORIENTED_EDGE('',*,*,#39,.T.);
#92 = ORIENTED_EDGE('',*,*,#93,.T.);
#93 = EDGE_CURVE('',#32,#94,#96,.T.);
#94 = VERTEX_POINT('',#95);
#95 = CARTESIAN_POINT('',(-24.9,-1.5,42.9));
#96 = LINE('',#97,#98);
#97 = CARTESIAN_POINT('',(-24.9,0.,42.9));
#98 = VECTOR('',#99,1.);
#99 = DIRECTION('',(0.,-1.,0.));
#100 = ORIENTED_EDGE('',*,*,#101,.F.);
#101 = EDGE_CURVE('',#102,#94,#104,.T.);
#102 = VERTEX_POINT('',#103);
#103 = CARTESIAN_POINT('',(-24.9,-1.5,0.));
#104 = LINE('',#105,#106);
#105 = CARTESIAN_POINT('',(-24.9,-1.5,0.));
#106 = VECTOR('',#107,1.);
#107 = DIRECTION('',(0.,0.,1.));
#108 = ORIENTED_EDGE('',*,*,#109,.F.);
#109 = EDGE_CURVE('',#40,#102,#110,.T.);
#110 = LINE('',#111,#112);
#111 = CARTESIAN_POINT('',(-24.9,0.,0.));
#112 = VECTOR('',#113,1.);
#113 = DIRECTION('',(0.,-1.,0.));
#114 = PLANE('',#115);
#115 = AXIS2_PLACEMENT_3D('',#116,#117,#118);
#116 = CARTESIAN_POINT('',(-24.9,0.,0.));
#117 = DIRECTION('',(1.,0.,0.));
#118 = DIRECTION('',(0.,-1.,0.));
#119 = ADVANCED_FACE('',(#120),#163,.F.);
#120 = FACE_BOUND('',#121,.F.);
#121 = EDGE_LOOP('',(#122,#123,#124,#132,#140,#148,#156,#162));
#122 = ORIENTED_EDGE('',*,*,#47,.T.);
#123 = ORIENTED_EDGE('',*,*,#109,.T.);
#124 = ORIENTED_EDGE('',*,*,#125,.T.);
#125 = EDGE_CURVE('',#102,#126,#128,.T.);
#126 = VERTEX_POINT('',#127);
#127 = CARTESIAN_POINT('',(24.9,-1.5,0.));
#128 = LINE('',#129,#130);
#129 = CARTESIAN_POINT('',(-24.9,-1.5,0.));
#130 = VECTOR('',#131,1.);
#131 = DIRECTION('',(1.,0.,0.));
#132 = ORIENTED_EDGE('',*,*,#133,.T.);
#133 = EDGE_CURVE('',#126,#134,#136,.T.);
#134 = VERTEX_POINT('',#135);
#135 = CARTESIAN_POINT('',(24.9,0.,0.));
#136 = LINE('',#137,#138);
#137 = CARTESIAN_POINT('',(24.9,-1.5,0.));
#138 = VECTOR('',#139,1.);
#139 = DIRECTION('',(0.,1.,0.));
#140 = ORIENTED_EDGE('',*,*,#141,.T.);
#141 = EDGE_CURVE('',#134,#142,#144,.T.);
#142 = VERTEX_POINT('',#143);
#143 = CARTESIAN_POINT('',(21.9,0.,0.));
#144 = LINE('',#145,#146);
#145 = CARTESIAN_POINT('',(24.9,0.,0.));
#146 = VECTOR('',#147,1.);
#147 = DIRECTION('',(-1.,0.,0.));
#148 = ORIENTED_EDGE('',*,*,#149,.T.);
#149 = EDGE_CURVE('',#142,#150,#152,.T.);
#150 = VERTEX_POINT('',#151);
#151 = CARTESIAN_POINT('',(25.9,4.,0.));
#152 = LINE('',#153,#154);
#153 = CARTESIAN_POINT('',(21.9,0.,0.));
#154 = VECTOR('',#155,1.);
#155 = DIRECTION('',(0.707106781187,0.707106781187,0.));
#156 = ORIENTED_EDGE('',*,*,#157,.F.);
#157 = EDGE_CURVE('',#71,#150,#158,.T.);
#158 = LINE('',#159,#160);
#159 = CARTESIAN_POINT('',(-25.9,4.,0.));
#160 = VECTOR('',#161,1.);
#161 = DIRECTION('',(1.,0.,0.));
#162 = ORIENTED_EDGE('',*,*,#78,.F.);
#163 = PLANE('',#164);
#164 = AXIS2_PLACEMENT_3D('',#165,#166,#167);
#165 = CARTESIAN_POINT('',(3.5E-16,1.253980531642,0.));
#166 = DIRECTION('',(0.,0.,1.));
#167 = DIRECTION('',(1.,0.,0.));
#168 = ADVANCED_FACE('',(#169),#212,.T.);
#169 = FACE_BOUND('',#170,.T.);
#170 = EDGE_LOOP('',(#171,#172,#173,#181,#189,#197,#205,#211));
#171 = ORIENTED_EDGE('',*,*,#31,.T.);
#172 = ORIENTED_EDGE('',*,*,#93,.T.);
#173 = ORIENTED_EDGE('',*,*,#174,.T.);
#174 = EDGE_CURVE('',#94,#175,#177,.T.);
#175 = VERTEX_POINT('',#176);
#176 = CARTESIAN_POINT('',(24.9,-1.5,42.9));
#177 = LINE('',#178,#179);
#178 = CARTESIAN_POINT('',(-24.9,-1.5,42.9));
#179 = VECTOR('',#180,1.);
#180 = DIRECTION('',(1.,0.,0.));
#181 = ORIENTED_EDGE('',*,*,#182,.T.);
#182 = EDGE_CURVE('',#175,#183,#185,.T.);
#183 = VERTEX_POINT('',#184);
#184 = CARTESIAN_POINT('',(24.9,0.,42.9));
#185 = LINE('',#186,#187);
#186 = CARTESIAN_POINT('',(24.9,-1.5,42.9));
#187 = VECTOR('',#188,1.);
#188 = DIRECTION('',(0.,1.,0.));
#189 = ORIENTED_EDGE('',*,*,#190,.T.);
#190 = EDGE_CURVE('',#183,#191,#193,.T.);
#191 = VERTEX_POINT('',#192);
#192 = CARTESIAN_POINT('',(21.9,0.,42.9));
#193 = LINE('',#194,#195);
#194 = CARTESIAN_POINT('',(24.9,0.,42.9));
#195 = VECTOR('',#196,1.);
#196 = DIRECTION('',(-1.,0.,0.));
#197 = ORIENTED_EDGE('',*,*,#198,.T.);
#198 = EDGE_CURVE('',#191,#199,#201,.T.);
#199 = VERTEX_POINT('',#200);
#200 = CARTESIAN_POINT('',(25.9,4.,42.9));
#201 = LINE('',#202,#203);
#202 = CARTESIAN_POINT('',(21.9,0.,42.9));
#203 = VECTOR('',#204,1.);
#204 = DIRECTION('',(0.707106781187,0.707106781187,0.));
#205 = ORIENTED_EDGE('',*,*,#206,.F.);
#206 = EDGE_CURVE('',#63,#199,#207,.T.);
#207 = LINE('',#208,#209);
#208 = CARTESIAN_POINT('',(-25.9,4.,42.9));
#209 = VECTOR('',#210,1.);
#210 = DIRECTION('',(1.,0.,0.));
#211 = ORIENTED_EDGE('',*,*,#62,.F.);
#212 = PLANE('',#213);
#213 = AXIS2_PLACEMENT_3D('',#214,#215,#216);
#214 = CARTESIAN_POINT('',(3.5E-16,1.253980531642,42.9));
#215 = DIRECTION('',(0.,0.,1.));
#216 = DIRECTION('',(1.,0.,0.));
#217 = ADVANCED_FACE('',(#218,#229,#240,#310),#321,.T.);
#218 = FACE_BOUND('',#219,.T.);
#219 = EDGE_LOOP('',(#220,#221,#222,#228));
#220 = ORIENTED_EDGE('',*,*,#70,.T.);
#221 = ORIENTED_EDGE('',*,*,#206,.T.);
#222 = ORIENTED_EDGE('',*,*,#223,.F.);
#223 = EDGE_CURVE('',#150,#199,#224,.T.);
#224 = LINE('',#225,#226);
#225 = CARTESIAN_POINT('',(25.9,4.,0.));
#226 = VECTOR('',#227,1.);
#227 = DIRECTION('',(0.,0.,1.));
#228 = ORIENTED_EDGE('',*,*,#157,.F.);
#229 = FACE_BOUND('',#230,.T.);
#230 = EDGE_LOOP('',(#231));
#231 = ORIENTED_EDGE('',*,*,#232,.F.);
#232 = EDGE_CURVE('',#233,#233,#235,.T.);
#233 = VERTEX_POINT('',#234);
#234 = CARTESIAN_POINT('',(-1.855,4.,36.5));
#235 = CIRCLE('',#236,1.855);
#236 = AXIS2_PLACEMENT_3D('',#237,#238,#239);
#237 = CARTESIAN_POINT('',(0.,4.,36.5));
#238 = DIRECTION('',(0.,1.,-0.));
#239 = DIRECTION('',(-1.,0.,0.));
#240 = FACE_BOUND('',#241,.T.);
#241 = EDGE_LOOP('',(#242,#252,#261,#269,#278,#286,#295,#303));
#242 = ORIENTED_EDGE('',*,*,#243,.F.);
#243 = EDGE_CURVE('',#244,#246,#248,.T.);
#244 = VERTEX_POINT('',#245);
#245 = CARTESIAN_POINT('',(10.,4.,30.5));
#246 = VERTEX_POINT('',#247);
#247 = CARTESIAN_POINT('',(10.,4.,12.5));
#248 = LINE('',#249,#250);
#249 = CARTESIAN_POINT('',(10.,4.,30.5));
#250 = VECTOR('',#251,1.);
#251 = DIRECTION('',(0.,0.,-1.));
#252 = ORIENTED_EDGE('',*,*,#253,.F.);
#253 = EDGE_CURVE('',#254,#244,#256,.T.);
#254 = VERTEX_POINT('',#255);
#255 = CARTESIAN_POINT('',(9.,4.,31.5));
#256 = CIRCLE('',#257,1.);
#257 = AXIS2_PLACEMENT_3D('',#258,#259,#260);
#258 = CARTESIAN_POINT('',(9.,4.,30.5));
#259 = DIRECTION('',(0.,1.,-0.));
#260 = DIRECTION('',(-1.,0.,0.));
#261 = ORIENTED_EDGE('',*,*,#262,.F.);
#262 = EDGE_CURVE('',#263,#254,#265,.T.);
#263 = VERTEX_POINT('',#264);
#264 = CARTESIAN_POINT('',(-9.,4.,31.5));
#265 = LINE('',#266,#267);
#266 = CARTESIAN_POINT('',(-9.,4.,31.5));
#267 = VECTOR('',#268,1.);
#268 = DIRECTION('',(1.,0.,0.));
#269 = ORIENTED_EDGE('',*,*,#270,.F.);
#270 = EDGE_CURVE('',#271,#263,#273,.T.);
#271 = VERTEX_POINT('',#272);
#272 = CARTESIAN_POINT('',(-10.,4.,30.5));
#273 = CIRCLE('',#274,1.);
#274 = AXIS2_PLACEMENT_3D('',#275,#276,#277);
#275 = CARTESIAN_POINT('',(-9.,4.,30.5));
#276 = DIRECTION('',(0.,1.,-0.));
#277 = DIRECTION('',(-1.,0.,0.));
#278 = ORIENTED_EDGE('',*,*,#279,.F.);
#279 = EDGE_CURVE('',#280,#271,#282,.T.);
#280 = VERTEX_POINT('',#281);
#281 = CARTESIAN_POINT('',(-10.,4.,12.5));
#282 = LINE('',#283,#284);
#283 = CARTESIAN_POINT('',(-10.,4.,12.5));
#284 = VECTOR('',#285,1.);
#285 = DIRECTION('',(0.,0.,1.));
#286 = ORIENTED_EDGE('',*,*,#287,.F.);
#287 = EDGE_CURVE('',#288,#280,#290,.T.);
#288 = VERTEX_POINT('',#289);
#289 = CARTESIAN_POINT('',(-9.,4.,11.5));
#290 = CIRCLE('',#291,1.);
#291 = AXIS2_PLACEMENT_3D('',#292,#293,#294);
#292 = CARTESIAN_POINT('',(-9.,4.,12.5));
#293 = DIRECTION('',(0.,1.,-0.));
#294 = DIRECTION('',(-1.,0.,0.));
#295 = ORIENTED_EDGE('',*,*,#296,.F.);
#296 = EDGE_CURVE('',#297,#288,#299,.T.);
#297 = VERTEX_POINT('',#298);
#298 = CARTESIAN_POINT('',(9.,4.,11.5));
#299 = LINE('',#300,#301);
#300 = CARTESIAN_POINT('',(9.,4.,11.5));
#301 = VECTOR('',#302,1.);
#302 = DIRECTION('',(-1.,0.,0.));
#303 = ORIENTED_EDGE('',*,*,#304,.F.);
#304 = EDGE_CURVE('',#246,#297,#305,.T.);
#305 = CIRCLE('',#306,1.);
#306 = AXIS2_PLACEMENT_3D('',#307,#308,#309);
#307 = CARTESIAN_POINT('',(9.,4.,12.5));
#308 = DIRECTION('',(0.,1.,-0.));
#309 = DIRECTION('',(-1.,0.,0.));
#310 = FACE_BOUND('',#311,.T.);
#311 = EDGE_LOOP('',(#312));
#312 = ORIENTED_EDGE('',*,*,#313,.F.);
#313 = EDGE_CURVE('',#314,#314,#316,.T.);
#314 = VERTEX_POINT('',#315);
#315 = CARTESIAN_POINT('',(-1.855,4.,6.5));
#316 = CIRCLE('',#317,1.855);
#317 = AXIS2_PLACEMENT_3D('',#318,#319,#320);
#318 = CARTESIAN_POINT('',(0.,4.,6.5));
#319 = DIRECTION('',(0.,1.,-0.));
#320 = DIRECTION('',(-1.,0.,0.));
#321 = PLANE('',#322);
#322 = AXIS2_PLACEMENT_3D('',#323,#324,#325);
#323 = CARTESIAN_POINT('',(-25.9,4.,0.));
#324 = DIRECTION('',(0.,1.,0.));
#325 = DIRECTION('',(1.,0.,0.));
#326 = ADVANCED_FACE('',(#327,#338),#408,.F.);
#327 = FACE_BOUND('',#328,.F.);
#328 = EDGE_LOOP('',(#329,#330,#331,#337));
#329 = ORIENTED_EDGE('',*,*,#101,.T.);
#330 = ORIENTED_EDGE('',*,*,#174,.T.);
#331 = ORIENTED_EDGE('',*,*,#332,.F.);
#332 = EDGE_CURVE('',#126,#175,#333,.T.);
#333 = LINE('',#334,#335);
#334 = CARTESIAN_POINT('',(24.9,-1.5,0.));
#335 = VECTOR('',#336,1.);
#336 = DIRECTION('',(0.,0.,1.));
#337 = ORIENTED_EDGE('',*,*,#125,.F.);
#338 = FACE_BOUND('',#339,.F.);
#339 = EDGE_LOOP('',(#340,#350,#359,#367,#376,#384,#393,#401));
#340 = ORIENTED_EDGE('',*,*,#341,.F.);
#341 = EDGE_CURVE('',#342,#344,#346,.T.);
#342 = VERTEX_POINT('',#343);
#343 = CARTESIAN_POINT('',(10.,-1.5,30.5));
#344 = VERTEX_POINT('',#345);
#345 = CARTESIAN_POINT('',(10.,-1.5,12.5));
#346 = LINE('',#347,#348);
#347 = CARTESIAN_POINT('',(10.,-1.5,15.25));
#348 = VECTOR('',#349,1.);
#349 = DIRECTION('',(0.,0.,-1.));
#350 = ORIENTED_EDGE('',*,*,#351,.F.);
#351 = EDGE_CURVE('',#352,#342,#354,.T.);
#352 = VERTEX_POINT('',#353);
#353 = CARTESIAN_POINT('',(9.,-1.5,31.5));
#354 = CIRCLE('',#355,1.);
#355 = AXIS2_PLACEMENT_3D('',#356,#357,#358);
#356 = CARTESIAN_POINT('',(9.,-1.5,30.5));
#357 = DIRECTION('',(0.,1.,-2.2E-16));
#358 = DIRECTION('',(-1.,0.,0.));
#359 = ORIENTED_EDGE('',*,*,#360,.F.);
#360 = EDGE_CURVE('',#361,#352,#363,.T.);
#361 = VERTEX_POINT('',#362);
#362 = CARTESIAN_POINT('',(-9.,-1.5,31.5));
#363 = LINE('',#364,#365);
#364 = CARTESIAN_POINT('',(-16.95,-1.5,31.5));
#365 = VECTOR('',#366,1.);
#366 = DIRECTION('',(1.,0.,0.));
#367 = ORIENTED_EDGE('',*,*,#368,.F.);
#368 = EDGE_CURVE('',#369,#361,#371,.T.);
#369 = VERTEX_POINT('',#370);
#370 = CARTESIAN_POINT('',(-10.,-1.5,30.5));
#371 = CIRCLE('',#372,1.);
#372 = AXIS2_PLACEMENT_3D('',#373,#374,#375);
#373 = CARTESIAN_POINT('',(-9.,-1.5,30.5));
#374 = DIRECTION('',(0.,1.,-2.2E-16));
#375 = DIRECTION('',(-1.,0.,0.));
#376 = ORIENTED_EDGE('',*,*,#377,.F.);
#377 = EDGE_CURVE('',#378,#369,#380,.T.);
#378 = VERTEX_POINT('',#379);
#379 = CARTESIAN_POINT('',(-10.,-1.5,12.5));
#380 = LINE('',#381,#382);
#381 = CARTESIAN_POINT('',(-10.,-1.5,6.25));
#382 = VECTOR('',#383,1.);
#383 = DIRECTION('',(0.,0.,1.));
#384 = ORIENTED_EDGE('',*,*,#385,.F.);
#385 = EDGE_CURVE('',#386,#378,#388,.T.);
#386 = VERTEX_POINT('',#387);
#387 = CARTESIAN_POINT('',(-9.,-1.5,11.5));
#388 = CIRCLE('',#389,1.);
#389 = AXIS2_PLACEMENT_3D('',#390,#391,#392);
#390 = CARTESIAN_POINT('',(-9.,-1.5,12.5));
#391 = DIRECTION('',(0.,1.,-2.2E-16));
#392 = DIRECTION('',(-1.,0.,0.));
#393 = ORIENTED_EDGE('',*,*,#394,.F.);
#394 = EDGE_CURVE('',#395,#386,#397,.T.);
#395 = VERTEX_POINT('',#396);
#396 = CARTESIAN_POINT('',(9.,-1.5,11.5));
#397 = LINE('',#398,#399);
#398 = CARTESIAN_POINT('',(-7.95,-1.5,11.5));
#399 = VECTOR('',#400,1.);
#400 = DIRECTION('',(-1.,0.,0.));
#401 = ORIENTED_EDGE('',*,*,#402,.F.);
#402 = EDGE_CURVE('',#344,#395,#403,.T.);
#403 = CIRCLE('',#404,1.);
#404 = AXIS2_PLACEMENT_3D('',#405,#406,#407);
#405 = CARTESIAN_POINT('',(9.,-1.5,12.5));
#406 = DIRECTION('',(0.,1.,-2.2E-16));
#407 = DIRECTION('',(-1.,0.,0.));
#408 = PLANE('',#409);
#409 = AXIS2_PLACEMENT_3D('',#410,#411,#412);
#410 = CARTESIAN_POINT('',(-24.9,-1.5,0.));
#411 = DIRECTION('',(0.,1.,0.));
#412 = DIRECTION('',(1.,0.,0.));
#413 = ADVANCED_FACE('',(#414),#425,.F.);
#414 = FACE_BOUND('',#415,.F.);
#415 = EDGE_LOOP('',(#416,#417,#418,#424));
#416 = ORIENTED_EDGE('',*,*,#332,.T.);
#417 = ORIENTED_EDGE('',*,*,#182,.T.);
#418 = ORIENTED_EDGE('',*,*,#419,.F.);
#419 = EDGE_CURVE('',#134,#183,#420,.T.);
#420 = LINE('',#421,#422);
#421 = CARTESIAN_POINT('',(24.9,0.,0.));
#422 = VECTOR('',#423,1.);
#423 = DIRECTION('',(0.,0.,1.));
#424 = ORIENTED_EDGE('',*,*,#133,.F.);
#425 = PLANE('',#426);
#426 = AXIS2_PLACEMENT_3D('',#427,#428,#429);
#427 = CARTESIAN_POINT('',(24.9,-1.5,0.));
#428 = DIRECTION('',(-1.,0.,0.));
#429 = DIRECTION('',(0.,1.,0.));
#430 = ADVANCED_FACE('',(#431),#442,.F.);
#431 = FACE_BOUND('',#432,.F.);
#432 = EDGE_LOOP('',(#433,#434,#435,#441));
#433 = ORIENTED_EDGE('',*,*,#419,.T.);
#434 = ORIENTED_EDGE('',*,*,#190,.T.);
#435 = ORIENTED_EDGE('',*,*,#436,.F.);
#436 = EDGE_CURVE('',#142,#191,#437,.T.);
#437 = LINE('',#438,#439);
#438 = CARTESIAN_POINT('',(21.9,0.,0.));
#439 = VECTOR('',#440,1.);
#440 = DIRECTION('',(0.,0.,1.));
#441 = ORIENTED_EDGE('',*,*,#141,.F.);
#442 = PLANE('',#443);
#443 = AXIS2_PLACEMENT_3D('',#444,#445,#446);
#444 = CARTESIAN_POINT('',(24.9,0.,0.));
#445 = DIRECTION('',(0.,-1.,0.));
#446 = DIRECTION('',(-1.,0.,0.));
#447 = ADVANCED_FACE('',(#448),#454,.F.);
#448 = FACE_BOUND('',#449,.F.);
#449 = EDGE_LOOP('',(#450,#451,#452,#453));
#450 = ORIENTED_EDGE('',*,*,#436,.T.);
#451 = ORIENTED_EDGE('',*,*,#198,.T.);
#452 = ORIENTED_EDGE('',*,*,#223,.F.);
#453 = ORIENTED_EDGE('',*,*,#149,.F.);
#454 = PLANE('',#455);
#455 = AXIS2_PLACEMENT_3D('',#456,#457,#458);
#456 = CARTESIAN_POINT('',(21.9,0.,0.));
#457 = DIRECTION('',(-0.707106781187,0.707106781187,0.));
#458 = DIRECTION('',(0.707106781187,0.707106781187,0.));
#459 = ADVANCED_FACE('',(#460),#479,.F.);
#460 = FACE_BOUND('',#461,.F.);
#461 = EDGE_LOOP('',(#462,#470,#477,#478));
#462 = ORIENTED_EDGE('',*,*,#463,.T.);
#463 = EDGE_CURVE('',#233,#464,#466,.T.);
#464 = VERTEX_POINT('',#465);
#465 = CARTESIAN_POINT('',(-1.855,8.E-15,36.5));
#466 = LINE('',#467,#468);
#467 = CARTESIAN_POINT('',(-1.855,4.,36.5));
#468 = VECTOR('',#469,1.);
#469 = DIRECTION('',(0.,-1.,2.2E-16));
#470 = ORIENTED_EDGE('',*,*,#471,.T.);
#471 = EDGE_CURVE('',#464,#464,#472,.T.);
#472 = CIRCLE('',#473,1.855);
#473 = AXIS2_PLACEMENT_3D('',#474,#475,#476);
#474 = CARTESIAN_POINT('',(0.,0.,36.5));
#475 = DIRECTION('',(0.,1.,-0.));
#476 = DIRECTION('',(-1.,0.,0.));
#477 = ORIENTED_EDGE('',*,*,#463,.F.);
#478 = ORIENTED_EDGE('',*,*,#232,.F.);
#479 = CYLINDRICAL_SURFACE('',#480,1.855);
#480 = AXIS2_PLACEMENT_3D('',#481,#482,#483);
#481 = CARTESIAN_POINT('',(0.,4.,36.5));
#482 = DIRECTION('',(0.,1.,-2.2E-16));
#483 = DIRECTION('',(-1.,0.,0.));
#484 = ADVANCED_FACE('',(#485),#501,.F.);
#485 = FACE_BOUND('',#486,.F.);
#486 = EDGE_LOOP('',(#487,#488,#494,#495));
#487 = ORIENTED_EDGE('',*,*,#243,.F.);
#488 = ORIENTED_EDGE('',*,*,#489,.T.);
#489 = EDGE_CURVE('',#244,#342,#490,.T.);
#490 = LINE('',#491,#492);
#491 = CARTESIAN_POINT('',(10.,4.,30.5));
#492 = VECTOR('',#493,1.);
#493 = DIRECTION('',(0.,-1.,2.2E-16));
#494 = ORIENTED_EDGE('',*,*,#341,.T.);
#495 = ORIENTED_EDGE('',*,*,#496,.F.);
#496 = EDGE_CURVE('',#246,#344,#497,.T.);
#497 = LINE('',#498,#499);
#498 = CARTESIAN_POINT('',(10.,4.,12.5));
#499 = VECTOR('',#500,1.);
#500 = DIRECTION('',(0.,-1.,2.2E-16));
#501 = PLANE('',#502);
#502 = AXIS2_PLACEMENT_3D('',#503,#504,#505);
#503 = CARTESIAN_POINT('',(10.,4.,30.5));
#504 = DIRECTION('',(1.,0.,0.));
#505 = DIRECTION('',(0.,-2.2E-16,-1.));
#506 = ADVANCED_FACE('',(#507),#518,.F.);
#507 = FACE_BOUND('',#508,.F.);
#508 = EDGE_LOOP('',(#509,#510,#516,#517));
#509 = ORIENTED_EDGE('',*,*,#253,.F.);
#510 = ORIENTED_EDGE('',*,*,#511,.T.);
#511 = EDGE_CURVE('',#254,#352,#512,.T.);
#512 = LINE('',#513,#514);
#513 = CARTESIAN_POINT('',(9.,4.,31.5));
#514 = VECTOR('',#515,1.);
#515 = DIRECTION('',(0.,-1.,2.2E-16));
#516 = ORIENTED_EDGE('',*,*,#351,.T.);
#517 = ORIENTED_EDGE('',*,*,#489,.F.);
#518 = CYLINDRICAL_SURFACE('',#519,1.);
#519 = AXIS2_PLACEMENT_3D('',#520,#521,#522);
#520 = CARTESIAN_POINT('',(9.,4.,30.5));
#521 = DIRECTION('',(0.,1.,-2.2E-16));
#522 = DIRECTION('',(-1.,0.,0.));
#523 = ADVANCED_FACE('',(#524),#535,.F.);
#524 = FACE_BOUND('',#525,.F.);
#525 = EDGE_LOOP('',(#526,#527,#528,#529));
#526 = ORIENTED_EDGE('',*,*,#304,.F.);
#527 = ORIENTED_EDGE('',*,*,#496,.T.);
#528 = ORIENTED_EDGE('',*,*,#402,.T.);
#529 = ORIENTED_EDGE('',*,*,#530,.F.);
#530 = EDGE_CURVE('',#297,#395,#531,.T.);
#531 = LINE('',#532,#533);
#532 = CARTESIAN_POINT('',(9.,4.,11.5));
#533 = VECTOR('',#534,1.);
#534 = DIRECTION('',(0.,-1.,2.2E-16));
#535 = CYLINDRICAL_SURFACE('',#536,1.);
#536 = AXIS2_PLACEMENT_3D('',#537,#538,#539);
#537 = CARTESIAN_POINT('',(9.,4.,12.5));
#538 = DIRECTION('',(0.,1.,-2.2E-16));
#539 = DIRECTION('',(-1.,0.,0.));
#540 = ADVANCED_FACE('',(#541),#552,.F.);
#541 = FACE_BOUND('',#542,.F.);
#542 = EDGE_LOOP('',(#543,#544,#550,#551));
#543 = ORIENTED_EDGE('',*,*,#262,.F.);
#544 = ORIENTED_EDGE('',*,*,#545,.T.);
#545 = EDGE_CURVE('',#263,#361,#546,.T.);
#546 = LINE('',#547,#548);
#547 = CARTESIAN_POINT('',(-9.,4.,31.5));
#548 = VECTOR('',#549,1.);
#549 = DIRECTION('',(0.,-1.,2.2E-16));
#550 = ORIENTED_EDGE('',*,*,#360,.T.);
#551 = ORIENTED_EDGE('',*,*,#511,.F.);
#552 = PLANE('',#553);
#553 = AXIS2_PLACEMENT_3D('',#554,#555,#556);
#554 = CARTESIAN_POINT('',(-9.,4.,31.5));
#555 = DIRECTION('',(0.,2.2E-16,1.));
#556 = DIRECTION('',(1.,0.,0.));
#557 = ADVANCED_FACE('',(#558),#569,.F.);
#558 = FACE_BOUND('',#559,.F.);
#559 = EDGE_LOOP('',(#560,#561,#562,#563));
#560 = ORIENTED_EDGE('',*,*,#296,.F.);
#561 = ORIENTED_EDGE('',*,*,#530,.T.);
#562 = ORIENTED_EDGE('',*,*,#394,.T.);
#563 = ORIENTED_EDGE('',*,*,#564,.F.);
#564 = EDGE_CURVE('',#288,#386,#565,.T.);
#565 = LINE('',#566,#567);
#566 = CARTESIAN_POINT('',(-9.,4.,11.5));
#567 = VECTOR('',#568,1.);
#568 = DIRECTION('',(0.,-1.,2.2E-16));
#569 = PLANE('',#570);
#570 = AXIS2_PLACEMENT_3D('',#571,#572,#573);
#571 = CARTESIAN_POINT('',(9.,4.,11.5));
#572 = DIRECTION('',(-0.,-2.2E-16,-1.));
#573 = DIRECTION('',(-1.,0.,0.));
#574 = ADVANCED_FACE('',(#575),#586,.F.);
#575 = FACE_BOUND('',#576,.F.);
#576 = EDGE_LOOP('',(#577,#578,#584,#585));
#577 = ORIENTED_EDGE('',*,*,#270,.F.);
#578 = ORIENTED_EDGE('',*,*,#579,.T.);
#579 = EDGE_CURVE('',#271,#369,#580,.T.);
#580 = LINE('',#581,#582);
#581 = CARTESIAN_POINT('',(-10.,4.,30.5));
#582 = VECTOR('',#583,1.);
#583 = DIRECTION('',(0.,-1.,2.2E-16));
#584 = ORIENTED_EDGE('',*,*,#368,.T.);
#585 = ORIENTED_EDGE('',*,*,#545,.F.);
#586 = CYLINDRICAL_SURFACE('',#587,1.);
#587 = AXIS2_PLACEMENT_3D('',#588,#589,#590);
#588 = CARTESIAN_POINT('',(-9.,4.,30.5));
#589 = DIRECTION('',(0.,1.,-2.2E-16));
#590 = DIRECTION('',(-1.,0.,0.));
#591 = ADVANCED_FACE('',(#592),#603,.F.);
#592 = FACE_BOUND('',#593,.F.);
#593 = EDGE_LOOP('',(#594,#595,#596,#597));
#594 = ORIENTED_EDGE('',*,*,#287,.F.);
#595 = ORIENTED_EDGE('',*,*,#564,.T.);
#596 = ORIENTED_EDGE('',*,*,#385,.T.);
#597 = ORIENTED_EDGE('',*,*,#598,.F.);
#598 = EDGE_CURVE('',#280,#378,#599,.T.);
#599 = LINE('',#600,#601);
#600 = CARTESIAN_POINT('',(-10.,4.,12.5));
#601 = VECTOR('',#602,1.);
#602 = DIRECTION('',(0.,-1.,2.2E-16));
#603 = CYLINDRICAL_SURFACE('',#604,1.);
#604 = AXIS2_PLACEMENT_3D('',#605,#606,#607);
#605 = CARTESIAN_POINT('',(-9.,4.,12.5));
#606 = DIRECTION('',(0.,1.,-2.2E-16));
#607 = DIRECTION('',(-1.,0.,0.));
#608 = ADVANCED_FACE('',(#609),#615,.F.);
#609 = FACE_BOUND('',#610,.F.);
#610 = EDGE_LOOP('',(#611,#612,#613,#614));
#611 = ORIENTED_EDGE('',*,*,#279,.F.);
#612 = ORIENTED_EDGE('',*,*,#598,.T.);
#613 = ORIENTED_EDGE('',*,*,#377,.T.);
#614 = ORIENTED_EDGE('',*,*,#579,.F.);
#615 = PLANE('',#616);
#616 = AXIS2_PLACEMENT_3D('',#617,#618,#619);
#617 = CARTESIAN_POINT('',(-10.,4.,12.5));
#618 = DIRECTION('',(-1.,0.,0.));
#619 = DIRECTION('',(0.,2.2E-16,1.));
#620 = ADVANCED_FACE('',(#621),#640,.F.);
#621 = FACE_BOUND('',#622,.F.);
#622 = EDGE_LOOP('',(#623,#631,#638,#639));
#623 = ORIENTED_EDGE('',*,*,#624,.T.);
#624 = EDGE_CURVE('',#314,#625,#627,.T.);
#625 = VERTEX_POINT('',#626);
#626 = CARTESIAN_POINT('',(-1.855,1.E-15,6.5));
#627 = LINE('',#628,#629);
#628 = CARTESIAN_POINT('',(-1.855,4.,6.5));
#629 = VECTOR('',#630,1.);
#630 = DIRECTION('',(0.,-1.,2.2E-16));
#631 = ORIENTED_EDGE('',*,*,#632,.T.);
#632 = EDGE_CURVE('',#625,#625,#633,.T.);
#633 = CIRCLE('',#634,1.855);
#634 = AXIS2_PLACEMENT_3D('',#635,#636,#637);
#635 = CARTESIAN_POINT('',(0.,0.,6.5));
#636 = DIRECTION('',(0.,1.,-0.));
#637 = DIRECTION('',(-1.,0.,0.));
#638 = ORIENTED_EDGE('',*,*,#624,.F.);
#639 = ORIENTED_EDGE('',*,*,#313,.F.);
#640 = CYLINDRICAL_SURFACE('',#641,1.855);
#641 = AXIS2_PLACEMENT_3D('',#642,#643,#644);
#642 = CARTESIAN_POINT('',(0.,4.,6.5));
#643 = DIRECTION('',(0.,1.,-2.2E-16));
#644 = DIRECTION('',(-1.,0.,0.));
#645 = ADVANCED_FACE('',(#646),#649,.T.);
#646 = FACE_BOUND('',#647,.T.);
#647 = EDGE_LOOP('',(#648));
#648 = ORIENTED_EDGE('',*,*,#471,.T.);
#649 = PLANE('',#650);
#650 = AXIS2_PLACEMENT_3D('',#651,#652,#653);
#651 = CARTESIAN_POINT('',(-7.E-17,4.440892098501E-15,21.5));
#652 = DIRECTION('',(0.,1.,-2.3E-16));
#653 = DIRECTION('',(0.,2.3E-16,1.));
#654 = ADVANCED_FACE('',(#655),#658,.T.);
#655 = FACE_BOUND('',#656,.T.);
#656 = EDGE_LOOP('',(#657));
#657 = ORIENTED_EDGE('',*,*,#632,.T.);
#658 = PLANE('',#659);
#659 = AXIS2_PLACEMENT_3D('',#660,#661,#662);
#660 = CARTESIAN_POINT('',(-7.E-17,4.440892098501E-15,21.5));
#661 = DIRECTION('',(0.,1.,-2.3E-16));
#662 = DIRECTION('',(0.,2.3E-16,1.));
#663 = ( GEOMETRIC_REPRESENTATION_CONTEXT(3) 
GLOBAL_UNCERTAINTY_ASSIGNED_CONTEXT((#667)) GLOBAL_UNIT_ASSIGNED_CONTEXT
((#664,#665,#666)) REPRESENTATION_CONTEXT('Context #1',
  '3D Context with UNIT and UNCERTAINTY') );
#664 = ( LENGTH_UNIT() NAMED_UNIT(*) SI_UNIT(.MILLI.,.METRE.) );
#665 = ( NAMED_UNIT(*) PLANE_ANGLE_UNIT() SI_UNIT($,.RADIAN.) );
#666 = ( NAMED_UNIT(*) SI_UNIT($,.STERADIAN.) SOLID_ANGLE_UNIT() );
#667 = UNCERTAINTY_MEASURE_WITH_UNIT(LENGTH_MEASURE(1.E-05),#664,
  'distance_accuracy_value','confusion accuracy');
#668 = PRODUCT_RELATED_PRODUCT_CATEGORY('part',$,(#7));
#669 = MECHANICAL_DESIGN_GEOMETRIC_PRESENTATION_REPRESENTATION('',(#670)
  ,#663);
#670 = STYLED_ITEM('color',(#671),#15);
#671 = PRESENTATION_STYLE_ASSIGNMENT((#672,#680));
#672 = SURFACE_STYLE_USAGE(.BOTH.,#673);
#673 = SURFACE_SIDE_STYLE('',(#674,#678));
#674 = SURFACE_STYLE_FILL_AREA(#675);
#675 = FILL_AREA_STYLE('',(#676));
#676 = FILL_AREA_STYLE_COLOUR('',#677);
#677 = COLOUR_RGB('',0.678431390124,0.709803936702,0.741176476869);
#678 = SURFACE_STYLE_RENDERING_WITH_PROPERTIES(.NORMAL_SHADING.,#677,(
    #679));
#679 = SURFACE_STYLE_TRANSPARENT(0.800000011921);
#680 = CURVE_STYLE('',#681,POSITIVE_LENGTH_MEASURE(0.1),#682);
#681 = DRAUGHTING_PRE_DEFINED_CURVE_FONT('continuous');
#682 = COLOUR_RGB('',9.803921802644E-02,9.803921802644E-02,
  9.803921802644E-02);
ENDSEC;
END-ISO-10303-21;
